<svg xmlns="http://www.w3.org/2000/svg" version="1.1" xmlns:xlink="http://www.w3.org/1999/xlink" xmlns:svgjs="http://svgjs.dev/svgjs" width="1500" height="1500" viewBox="0 0 1500 1500"><g transform="matrix(1,0,0,1,-0.7499999999998863,-0.7492138975152329)"><svg viewBox="0 0 280 280" data-background-color="#61777f" preserveAspectRatio="xMidYMid meet" height="1500" width="1500" xmlns="http://www.w3.org/2000/svg" xmlns:xlink="http://www.w3.org/1999/xlink"><g id="tight-bounds" transform="matrix(1,0,0,1,0.13999999999998636,0.13985326086950067)"><svg viewBox="0 0 279.72 279.72" height="279.72" width="279.72"><g><svg viewBox="0 0 279.72 279.72" height="279.72" width="279.72"><g><svg viewBox="0 0 279.72 279.72" height="279.72" width="279.72"><g id="textblocktransform"><svg viewBox="0 0 279.72 279.72" height="279.72" width="279.72" id="textblock"><g><svg viewBox="0 0 279.72 279.72" height="279.72" width="279.72"><g transform="matrix(1,0,0,1,57.446704652707865,57.446704652707865)"><svg viewBox="0 0 164.8265906945843 164.8265906945843" height="164.8265906945843" width="164.8265906945843"><g id="icon-0"><circle r="82" cx="82.41329534729215" cy="82.41329534729215" fill="#ffffff" data-fill-palette-color="accent"></circle><svg xmlns="http://www.w3.org/2000/svg" xmlns:xlink="http://www.w3.org/1999/xlink" version="1.1" x="24.72398860418764" y="24.723988604187646" viewBox="2 8.539 96 76.46044004319403" enable-background="new 0 0 100 100" xml:space="preserve" height="115.378613486209" width="115.378613486209" class="icon-xg-0" data-fill-palette-color="quaternary" id="xg-0"><path d="M95 8.539L53 22.986v50.284c-1.832-0.864-4.27-1.001-6.694-0.193-4.192 1.397-6.74 5.078-5.692 8.222 1.048 3.144 5.295 4.559 9.487 3.162 3.742-1.247 6.166-4.314 5.899-7.195V32l36-12.397v32.681c-1.835-0.876-4.286-1.019-6.722-0.207-4.192 1.397-6.74 5.078-5.692 8.222 1.048 3.144 5.295 4.559 9.487 3.162 3.525-1.175 5.878-3.965 5.918-6.692H95V8.539z" fill="#61777f" data-fill-palette-color="quaternary"></path><g fill="#61777f" data-fill-palette-color="quaternary"><path d="M19 9v43c-1.869-0.892-4.481-0.971-6.963-0.143-4.269 1.423-6.865 5.172-5.798 8.374 1.067 3.202 5.393 4.644 9.663 3.221 3.59-1.197 6.047-4.038 6.087-6.816H22V23c0 0 12.926 3.741 17 18C39 24.704 25 22 19 9z" fill="#61777f" data-fill-palette-color="quaternary"></path><g fill="#61777f" data-fill-palette-color="quaternary"><path d="M37.423 79H2v2h35.476C37.371 80.333 37.355 79.664 37.423 79z" fill="#61777f" data-fill-palette-color="quaternary"></path><path d="M98 81v-2H58.9c-0.115 0.68-0.31 1.351-0.591 2H98z" fill="#61777f" data-fill-palette-color="quaternary"></path><path d="M5.078 64H2v2h5.87C6.789 65.499 5.842 64.824 5.078 64z" fill="#61777f" data-fill-palette-color="quaternary"></path><path d="M98 66v-2h-3.769c-0.978 0.804-2.112 1.487-3.377 2H98z" fill="#61777f" data-fill-palette-color="quaternary"></path><path d="M78.401 64H59v2h22.155C80.082 65.501 79.157 64.82 78.401 64z" fill="#61777f" data-fill-palette-color="quaternary"></path><path d="M21.09 64c-0.996 0.803-2.149 1.486-3.433 2H50v-2H21.09z" fill="#61777f" data-fill-palette-color="quaternary"></path><rect x="25" y="49" width="25" height="2" fill="#61777f" data-fill-palette-color="quaternary"></rect><path d="M11.125 49H2v2h5.25c1.106-0.825 2.395-1.508 3.839-1.99C11.101 49.006 11.113 49.004 11.125 49z" fill="#61777f" data-fill-palette-color="quaternary"></path><path d="M59 51h21.822c1.029-0.725 2.201-1.333 3.507-1.769 0.264-0.088 0.53-0.16 0.796-0.231H59V51z" fill="#61777f" data-fill-palette-color="quaternary"></path><path d="M32.25 34H25v2h8.595C33.168 35.288 32.718 34.622 32.25 34z" fill="#61777f" data-fill-palette-color="quaternary"></path><rect x="2" y="34" width="14" height="2" fill="#61777f" data-fill-palette-color="quaternary"></rect><polygon points="59,36 89,36 89,34 59.406,34 59,34.14   " fill="#61777f" data-fill-palette-color="quaternary"></polygon><path d="M41.551 36H50v-2h-8.898C41.277 34.642 41.425 35.311 41.551 36z" fill="#61777f" data-fill-palette-color="quaternary"></path><path d="M32.734 21h18.028c0.335-0.378 0.762-0.678 1.263-0.851L55.366 19H30.686c0.004 0.004 0.008 0.007 0.011 0.011C31.377 19.668 32.059 20.328 32.734 21z" fill="#61777f" data-fill-palette-color="quaternary"></path><rect x="2" y="19" width="14" height="2" fill="#61777f" data-fill-palette-color="quaternary"></rect></g></g></svg></g></svg></g><g id="text-0"><path d="M24.558 89.431v0c0.153 0.104 0.365 0.275 0.639 0.513 0.273 0.238 0.58 0.509 0.92 0.814 0.343 0.298 0.704 0.624 1.083 0.977 0.379 0.353 0.751 0.697 1.117 1.032v0c0.166 0.144 0.273 0.287 0.32 0.431 0.056 0.139 0.027 0.375-0.085 0.707v0l-1.684 4.971 7.308 3.31c0.097 0.042 0.187 0.106 0.269 0.191 0.078 0.077 0.129 0.169 0.154 0.277v0c0.012 0.046 0.029 0.204 0.052 0.471 0.023 0.268 0.047 0.604 0.072 1.006 0.016 0.406 0.037 0.849 0.062 1.329 0.019 0.477 0.024 0.943 0.017 1.396-0.002 0.456-0.014 0.873-0.037 1.252-0.027 0.37-0.075 0.651-0.144 0.844v0c-0.08 0.224-0.197 0.414-0.351 0.569-0.148 0.158-0.352 0.19-0.614 0.097v0c-0.571-0.19-1.189-0.426-1.855-0.706-0.669-0.289-1.349-0.588-2.039-0.898-0.684-0.308-1.356-0.619-2.016-0.932-0.656-0.305-1.259-0.584-1.808-0.837v0l-1.379-0.62c-0.339 0.947-0.608 1.612-0.81 1.997-0.197 0.393-0.401 0.552-0.612 0.476v0c-0.149-0.053-0.311-0.21-0.486-0.469v0c-0.245-0.355-0.545-0.764-0.899-1.227-0.354-0.464-0.703-0.912-1.047-1.344-0.342-0.438-0.644-0.821-0.907-1.147-0.267-0.334-0.427-0.543-0.482-0.625v0l-4.547-1.985c-0.076 0.212-0.138 0.397-0.188 0.554-0.052 0.164-0.098 0.313-0.138 0.446-0.047 0.131-0.087 0.253-0.121 0.367-0.034 0.114-0.073 0.234-0.118 0.359v0c-0.194 0.542-0.363 0.917-0.508 1.124-0.145 0.208-0.301 0.282-0.469 0.222v0c-0.081-0.029-0.221-0.157-0.421-0.382-0.196-0.218-0.42-0.484-0.673-0.799-0.253-0.315-0.515-0.651-0.788-1.009-0.273-0.357-0.529-0.681-0.769-0.971v0l-1.364-1.636 2.486-7.803c0.319-1.01 0.636-2.013 0.951-3.01 0.315-0.997 0.601-1.917 0.861-2.759 0.265-0.839 0.489-1.563 0.671-2.172 0.191-0.613 0.323-1.04 0.396-1.281v0c0.004-0.012 0.019-0.042 0.042-0.09 0.024-0.048 0.059-0.095 0.104-0.142 0.051-0.045 0.12-0.08 0.206-0.105 0.086-0.025 0.192-0.016 0.316 0.028v0c0.062 0.022 0.259 0.18 0.589 0.475 0.33 0.294 0.819 0.725 1.466 1.293v0l1.707 1.443c0.164 0.15 0.278 0.293 0.342 0.428 0.062 0.141 0.041 0.376-0.063 0.705v0c-0.126 0.391-0.247 0.79-0.365 1.197-0.122 0.399-0.245 0.812-0.369 1.237v0l-1.593 5.246c0.418 0.227 0.728 0.39 0.931 0.491 0.207 0.109 0.379 0.188 0.516 0.238 0.141 0.057 0.283 0.112 0.426 0.163 0.137 0.049 0.356 0.134 0.657 0.256v0c0.213 0.09 0.389 0.171 0.525 0.24 0.145 0.066 0.286 0.134 0.422 0.204 0.13 0.068 0.273 0.14 0.428 0.216 0.151 0.068 0.343 0.151 0.575 0.248v0c0.249-0.754 0.489-1.493 0.72-2.218 0.231-0.725 0.446-1.393 0.643-2.004 0.191-0.613 0.357-1.144 0.496-1.592 0.146-0.447 0.251-0.76 0.316-0.941v0c0.031-0.087 0.101-0.175 0.21-0.262 0.102-0.09 0.25-0.1 0.443-0.031v0c0.093 0.033 0.191 0.086 0.291 0.157z" fill="#331d2c" data-fill-palette-color="primary"></path><path d="M45.425 84.023v0c-0.847 1.458-1.83 2.604-2.95 3.438-1.122 0.825-2.293 1.379-3.514 1.664-1.23 0.287-2.471 0.316-3.721 0.087-1.249-0.221-2.428-0.653-3.537-1.298v0c-1.109-0.645-2.058-1.44-2.847-2.388-0.791-0.942-1.394-1.972-1.806-3.091-0.416-1.114-0.624-2.283-0.625-3.507-0.009-1.222 0.214-2.434 0.669-3.638v0c0.088-0.178 0.101-0.286 0.038-0.323v0c-0.114-0.066-0.228-0.114-0.342-0.141-0.12-0.031-0.214-0.067-0.283-0.107v0c-0.114-0.066-0.178-0.134-0.191-0.203-0.022-0.067-0.019-0.126 0.011-0.177v0c1.153-1.984 2.359-3.54 3.618-4.667 1.259-1.127 2.53-1.899 3.812-2.317 1.283-0.417 2.568-0.516 3.855-0.296 1.287 0.22 2.54 0.684 3.758 1.392v0c1.544 0.897 2.773 1.955 3.686 3.174 0.91 1.225 1.525 2.53 1.843 3.916 0.319 1.386 0.352 2.805 0.098 4.256-0.257 1.457-0.781 2.866-1.572 4.226zM35.014 81.819v0c0.56 0.326 1.15 0.588 1.769 0.786 0.619 0.199 1.231 0.291 1.837 0.276 0.606-0.015 1.175-0.166 1.708-0.453 0.534-0.287 0.993-0.762 1.379-1.425v0c0.259-0.485 0.395-0.964 0.41-1.437 0.012-0.468-0.058-0.921-0.208-1.36-0.159-0.437-0.381-0.852-0.664-1.246-0.283-0.394-0.6-0.758-0.95-1.091-0.355-0.336-0.717-0.642-1.085-0.917-0.371-0.269-0.717-0.497-1.037-0.683v0c-0.538-0.312-1.113-0.54-1.726-0.682-0.613-0.142-1.209-0.171-1.786-0.085-0.574 0.08-1.116 0.281-1.625 0.605-0.515 0.32-0.947 0.781-1.296 1.381v0c-0.362 0.623-0.483 1.253-0.363 1.888 0.126 0.639 0.383 1.243 0.771 1.814 0.391 0.564 0.854 1.077 1.388 1.54 0.528 0.46 1.021 0.823 1.478 1.089z" fill="#331d2c" data-fill-palette-color="primary"></path><path d="M59.76 64.898v0c-1.135 1.247-2.338 2.16-3.607 2.74-1.27 0.57-2.532 0.866-3.786 0.887-1.263 0.022-2.482-0.211-3.656-0.699-1.174-0.479-2.236-1.15-3.185-2.014v0c-0.949-0.864-1.709-1.842-2.279-2.933-0.575-1.087-0.947-2.221-1.115-3.403-0.172-1.176-0.13-2.363 0.128-3.559 0.248-1.196 0.721-2.335 1.419-3.417v0c0.124-0.156 0.159-0.258 0.105-0.306v0c-0.098-0.089-0.199-0.159-0.305-0.211-0.11-0.056-0.195-0.11-0.253-0.164v0c-0.098-0.089-0.146-0.169-0.145-0.239-0.008-0.07 0.008-0.127 0.048-0.17v0c1.545-1.697 3.051-2.964 4.52-3.801 1.468-0.837 2.873-1.324 4.215-1.462 1.342-0.138 2.619 0.036 3.83 0.522 1.212 0.486 2.339 1.203 3.381 2.152v0c1.321 1.202 2.299 2.495 2.935 3.879 0.632 1.389 0.958 2.794 0.978 4.216 0.02 1.422-0.247 2.816-0.801 4.181-0.558 1.37-1.367 2.637-2.427 3.801zM50.048 60.551v0c0.479 0.436 1 0.817 1.563 1.141 0.563 0.325 1.142 0.543 1.737 0.656 0.595 0.112 1.184 0.085 1.766-0.083 0.582-0.168 1.131-0.535 1.648-1.103v0c0.355-0.419 0.589-0.859 0.703-1.318 0.11-0.455 0.137-0.912 0.083-1.373-0.064-0.46-0.193-0.913-0.387-1.358-0.194-0.445-0.427-0.867-0.698-1.267-0.276-0.404-0.566-0.779-0.868-1.125-0.306-0.341-0.596-0.637-0.87-0.886v0c-0.46-0.418-0.974-0.762-1.544-1.03-0.57-0.268-1.146-0.421-1.728-0.459-0.578-0.043-1.15 0.04-1.716 0.249-0.571 0.205-1.09 0.564-1.558 1.077v0c-0.485 0.533-0.736 1.123-0.752 1.77-0.012 0.651 0.112 1.296 0.372 1.935 0.264 0.634 0.608 1.233 1.032 1.799 0.42 0.561 0.825 1.019 1.216 1.375z" fill="#331d2c" data-fill-palette-color="primary"></path><path d="M71.385 35.19l-2.683 2.011c0.625 1.11 1.252 2.211 1.88 3.302 0.637 1.093 1.267 2.088 1.89 2.984v0c0.282 0.376 0.545 0.666 0.789 0.872 0.245 0.205 0.476 0.337 0.695 0.397 0.222 0.065 0.432 0.069 0.629 0.012 0.201-0.052 0.397-0.149 0.587-0.292v0c0.307-0.23 0.609-0.527 0.907-0.89 0.298-0.364 0.574-0.756 0.828-1.179v0c0.081-0.135 0.153-0.243 0.216-0.323 0.065-0.09 0.124-0.155 0.177-0.194v0c0.101-0.075 0.2-0.08 0.299-0.014 0.095 0.061 0.243 0.186 0.443 0.375 0.194 0.193 0.463 0.447 0.805 0.76 0.333 0.312 0.787 0.691 1.361 1.137v0c0.046 0.04 0.084 0.073 0.113 0.102 0.029 0.028 0.056 0.058 0.079 0.089v0c0.099 0.132 0.12 0.265 0.063 0.399-0.057 0.134-0.172 0.327-0.345 0.581v0c-0.292 0.426-0.607 0.872-0.943 1.339-0.327 0.468-0.663 0.918-1.008 1.351-0.341 0.438-0.68 0.84-1.016 1.208-0.34 0.362-0.661 0.657-0.963 0.882v0c-1.598 1.198-3.063 1.676-4.393 1.434-1.335-0.248-2.613-1.187-3.834-2.817v0c-0.21-0.28-0.414-0.574-0.611-0.881-0.202-0.303-0.407-0.625-0.613-0.966v0c-0.627-1.035-1.227-2.006-1.801-2.916-0.569-0.913-1.109-1.793-1.62-2.641v0l-1.516 1.137c-0.519 0.389-0.908 0.647-1.167 0.775-0.265 0.132-0.448 0.13-0.552-0.008v0c-0.028-0.037-0.057-0.176-0.089-0.417-0.032-0.241-0.061-0.533-0.087-0.877-0.025-0.353-0.052-0.726-0.081-1.117-0.028-0.401-0.051-0.78-0.071-1.137-0.016-0.352-0.034-0.657-0.053-0.914-0.011-0.257-0.016-0.418-0.016-0.484v0l1.024-0.768c-0.459-0.788-0.848-1.451-1.168-1.988-0.316-0.532-0.581-0.974-0.795-1.326-0.214-0.352-0.371-0.627-0.47-0.825-0.108-0.2-0.176-0.356-0.202-0.469-0.032-0.108-0.031-0.196 0.002-0.262 0.037-0.061 0.09-0.134 0.158-0.218v0c0.37-0.41 0.729-0.803 1.076-1.178 0.347-0.376 0.696-0.753 1.048-1.133 0.343-0.381 0.685-0.778 1.028-1.192 0.343-0.414 0.689-0.856 1.04-1.325v0c0.026-0.02 0.043-0.036 0.05-0.049 0.007-0.013 0.023-0.03 0.049-0.05v0c0.116-0.087 0.204-0.091 0.264-0.012v0l0.018 0.024c0.349 0.565 0.826 1.356 1.432 2.373 0.606 1.017 1.289 2.166 2.051 3.447v0l3.857-2.891c0.079-0.059 0.176-0.091 0.29-0.094 0.108 0.001 0.21 0.066 0.306 0.193v0c0.036 0.048 0.106 0.263 0.212 0.647 0.115 0.385 0.245 0.895 0.39 1.53v0l0.351 1.559c0.044 0.19 0.054 0.348 0.031 0.472-0.017 0.12-0.131 0.272-0.341 0.455z" fill="#331d2c" data-fill-palette-color="primary"></path><path d="M85.317 28.727l2.596 6.51c0.213 0.16 0.475 0.298 0.786 0.416 0.305 0.121 0.636 0.206 0.994 0.257 0.352 0.053 0.713 0.057 1.082 0.012 0.37-0.045 0.72-0.15 1.052-0.316v0c0.461-0.231 0.805-0.629 1.032-1.194 0.23-0.559 0.343-1.219 0.34-1.979 0.005-0.757-0.102-1.569-0.321-2.436-0.217-0.86-0.535-1.711-0.957-2.55v0c-0.258-0.514-0.547-0.98-0.866-1.396-0.326-0.414-0.669-0.745-1.03-0.993-0.367-0.245-0.756-0.394-1.167-0.447-0.402-0.05-0.819 0.033-1.251 0.249v0c-0.698 0.35-1.234 0.874-1.609 1.572-0.375 0.698-0.602 1.463-0.681 2.295zM84.949 44.268v0c-0.133 0.104-0.244 0.178-0.333 0.222v0c-0.343 0.172-0.617 0.054-0.821-0.354v0c-0.027-0.053-0.05-0.108-0.071-0.164-0.021-0.056-0.042-0.12-0.062-0.191v0l-9.546-23.7c-0.015-0.03-0.027-0.061-0.036-0.093-0.012-0.038-0.022-0.067-0.031-0.084v0c-0.024-0.047-0.046-0.084-0.067-0.111-0.024-0.033-0.04-0.058-0.049-0.076v0c-0.05-0.101-0.055-0.198-0.013-0.292 0.041-0.095 0.189-0.25 0.443-0.467v0l3.981-3.348c0.109-0.077 0.239-0.201 0.39-0.373 0.157-0.175 0.327-0.308 0.51-0.4v0c0.136-0.068 0.282-0.101 0.439-0.098 0.157 0.003 0.281 0.096 0.373 0.279v0c0.009 0.018 0.016 0.04 0.022 0.067 0.006 0.027 0.013 0.049 0.022 0.066v0c0.021 0.056 0.113 0.306 0.276 0.75 0.169 0.441 0.377 0.973 0.623 1.596 0.243 0.618 0.502 1.283 0.778 1.996 0.279 0.718 0.54 1.387 0.783 2.005 0.246 0.624 0.454 1.156 0.622 1.596 0.16 0.438 0.252 0.687 0.276 0.75v0c0.52-0.911 1.113-1.749 1.781-2.513 0.659-0.767 1.408-1.36 2.248-1.781v0c1.1-0.551 2.166-0.8 3.198-0.748 1.038 0.049 2.007 0.322 2.906 0.818 0.905 0.493 1.731 1.167 2.478 2.021 0.749 0.86 1.387 1.816 1.915 2.868v0c0.424 0.846 0.771 1.737 1.04 2.675 0.273 0.928 0.457 1.857 0.553 2.785 0.098 0.935 0.098 1.856-0.002 2.764-0.1 0.908-0.31 1.757-0.632 2.547-0.328 0.793-0.771 1.511-1.329 2.153-0.564 0.645-1.26 1.175-2.089 1.59v0c-0.993 0.498-2.014 0.735-3.06 0.713-1.047-0.023-2.097-0.207-3.151-0.552v0c0.104 0.266 0.188 0.479 0.254 0.639 0.062 0.154 0.085 0.287 0.067 0.399-0.021 0.106-0.078 0.213-0.173 0.32-0.092 0.112-0.239 0.253-0.443 0.422v0c-0.103 0.089-0.285 0.243-0.546 0.461-0.26 0.219-0.575 0.477-0.944 0.773-0.369 0.296-0.774 0.625-1.215 0.986-0.449 0.358-0.904 0.72-1.365 1.084z" fill="#331d2c" data-fill-palette-color="primary"></path><path d="M120.245 8.848l2.435 16.691c0.001 0.055 0.006 0.101 0.016 0.14 0.01 0.038 0.02 0.077 0.03 0.115v0c0.075 0.288 0.182 0.516 0.322 0.685 0.146 0.167 0.289 0.297 0.43 0.39 0.141 0.093 0.269 0.166 0.384 0.217 0.11 0.053 0.172 0.109 0.187 0.167v0c0.042 0.16-0.092 0.355-0.4 0.586v0l-4.162 3.228c-0.011 0.01-0.052 0.024-0.122 0.042v0c-0.09 0.023-0.203-0.032-0.341-0.167-0.131-0.137-0.274-0.318-0.429-0.544-0.148-0.228-0.298-0.476-0.45-0.744-0.15-0.262-0.286-0.506-0.407-0.735v0c-0.509 1.035-1.138 1.862-1.886 2.481-0.743 0.611-1.534 1.025-2.371 1.244v0c-0.973 0.254-1.979 0.287-3.019 0.1-1.04-0.187-2.025-0.583-2.955-1.188-0.924-0.607-1.75-1.416-2.479-2.429-0.729-1.013-1.277-2.223-1.644-3.631v0c-0.432-1.657-0.587-3.234-0.464-4.728 0.123-1.495 0.468-2.846 1.035-4.053 0.569-1.201 1.33-2.213 2.284-3.036 0.961-0.825 2.055-1.397 3.284-1.717v0c0.87-0.227 1.742-0.266 2.614-0.118 0.866 0.15 1.721 0.413 2.564 0.787v0c-0.02-0.364-0.051-0.653-0.093-0.867-0.047-0.206-0.064-0.376-0.051-0.51 0.008-0.125 0.065-0.222 0.17-0.29 0.105-0.068 0.289-0.15 0.551-0.247v0c0.808-0.334 1.612-0.66 2.411-0.977 0.807-0.313 1.659-0.61 2.556-0.892zM116.37 25.677l-0.612-5.335c-0.052-0.697-0.135-1.345-0.251-1.944-0.113-0.592-0.221-1.135-0.322-1.628v0c-0.222-0.092-0.462-0.187-0.72-0.284-0.25-0.092-0.517-0.173-0.801-0.242-0.285-0.069-0.575-0.11-0.872-0.121-0.295-0.005-0.593 0.032-0.894 0.11v0c-0.627 0.164-1.099 0.502-1.417 1.015-0.316 0.52-0.528 1.108-0.637 1.765-0.107 0.664-0.129 1.339-0.066 2.027 0.063 0.688 0.161 1.287 0.295 1.799v0c0.479 1.837 1.069 3.118 1.771 3.844 0.704 0.732 1.487 0.986 2.352 0.761v0c0.346-0.09 0.707-0.29 1.084-0.601 0.377-0.31 0.74-0.699 1.09-1.166z" fill="#331d2c" data-fill-palette-color="primary"></path><path d="M128.573 13.128v0c-0.012-1.647-0.053-3.274-0.122-4.881-0.062-1.609-0.121-3.261-0.179-4.956v0c-0.012-0.398 0.001-0.675 0.04-0.831 0.039-0.15 0.164-0.262 0.376-0.336v0c1.087-0.304 2.18-0.615 3.279-0.933 1.099-0.318 2.191-0.706 3.276-1.163v0c0.039-0.01 0.095-0.019 0.167-0.026v0c0.125-0.012 0.193 0.041 0.205 0.159v0l0.144 25.799 0.029 0.306c0.01 0.105-0.024 0.195-0.103 0.269-0.079 0.074-0.269 0.169-0.571 0.285v0l-4.525 2.17c-0.126 0.072-0.294 0.151-0.505 0.238-0.204 0.086-0.409 0.139-0.613 0.158v0c-0.171 0.017-0.323-0.009-0.455-0.075-0.133-0.074-0.21-0.212-0.23-0.417v0l-0.01-0.108c-0.017-1.214-0.039-2.401-0.064-3.562-0.019-1.161-0.038-2.362-0.058-3.602-0.013-1.241-0.027-2.555-0.042-3.943-0.013-1.381-0.027-2.898-0.039-4.551z" fill="#331d2c" data-fill-palette-color="primary"></path><path d="M143.119 12.395v0c0.172-1.638 0.315-3.259 0.428-4.865 0.119-1.605 0.245-3.254 0.379-4.945v0c0.033-0.396 0.077-0.67 0.132-0.821 0.055-0.145 0.192-0.242 0.412-0.291v0c1.114-0.18 2.235-0.367 3.363-0.559 1.128-0.193 2.256-0.456 3.386-0.788v0c0.04-0.006 0.096-0.008 0.169-0.007v0c0.126 0.002 0.187 0.063 0.185 0.181v0l-2.754 25.652-0.005 0.308c-0.002 0.106-0.046 0.191-0.133 0.255-0.087 0.065-0.287 0.137-0.599 0.219v0l-4.74 1.648c-0.133 0.057-0.309 0.117-0.529 0.18-0.213 0.063-0.422 0.092-0.626 0.089v0c-0.172-0.003-0.32-0.045-0.445-0.127-0.124-0.088-0.185-0.235-0.181-0.439v0l0.002-0.109c0.119-1.208 0.231-2.391 0.336-3.547 0.112-1.156 0.227-2.351 0.347-3.586 0.126-1.235 0.26-2.542 0.402-3.922 0.142-1.373 0.299-2.882 0.471-4.526z" fill="#331d2c" data-fill-palette-color="primary"></path><path d="M166.973 17.974v0c0.345-1.277 0.829-2.462 1.452-3.553 0.624-1.092 1.357-2.072 2.202-2.941 0.836-0.864 1.772-1.604 2.809-2.222 1.03-0.619 2.124-1.091 3.28-1.416 1.156-0.325 2.36-0.493 3.609-0.505 1.25-0.012 2.52 0.156 3.81 0.504v0c1.015 0.274 1.891 0.582 2.627 0.925 0.736 0.343 1.361 0.693 1.874 1.051 0.521 0.353 0.944 0.703 1.268 1.051 0.324 0.348 0.584 0.668 0.779 0.96v0c-0.013-0.003-0.03 0.036-0.053 0.12v0c-0.047 0.172-0.119 0.492-0.218 0.958-0.094 0.475-0.198 1.001-0.313 1.58-0.115 0.579-0.235 1.163-0.36 1.753-0.127 0.596-0.248 1.108-0.363 1.535v0c-0.019 0.07-0.066 0.143-0.142 0.219-0.067 0.071-0.193 0.081-0.378 0.031v0c-0.102-0.028-0.226-0.078-0.37-0.151v0c-0.224-0.136-0.487-0.378-0.79-0.727-0.303-0.349-0.663-0.727-1.081-1.134-0.419-0.401-0.906-0.793-1.461-1.175-0.548-0.381-1.18-0.668-1.894-0.861v0c-0.951-0.257-1.864-0.301-2.739-0.133-0.881 0.166-1.682 0.508-2.404 1.026-0.727 0.509-1.363 1.18-1.91 2.012-0.545 0.826-0.963 1.778-1.254 2.857v0c-0.255 0.945-0.394 1.88-0.418 2.805-0.028 0.917 0.084 1.756 0.338 2.517 0.246 0.765 0.632 1.428 1.159 1.987 0.529 0.554 1.208 0.943 2.038 1.167v0c0.664 0.179 1.254 0.315 1.771 0.406 0.523 0.093 1.018 0.148 1.486 0.165 0.47 0.01 0.939-0.014 1.407-0.072 0.474-0.057 0.99-0.154 1.548-0.291v0c0.023-0.008 0.082 0.002 0.178 0.027v0c0.083 0.022 0.129 0.069 0.136 0.14 0.015 0.072-0.005 0.208-0.058 0.405v0l-0.563 2.088c-0.103 0.383-0.207 0.756-0.312 1.118-0.105 0.362-0.199 0.686-0.283 0.972-0.086 0.292-0.156 0.527-0.211 0.703-0.055 0.177-0.088 0.264-0.101 0.261v0c-0.62 0.189-1.262 0.31-1.927 0.363-0.672 0.052-1.343 0.052-2.014 0.001-0.678-0.053-1.347-0.148-2.009-0.285-0.655-0.136-1.283-0.285-1.883-0.447v0c-1.635-0.441-3.08-1.164-4.337-2.167-1.257-1.004-2.262-2.203-3.015-3.599-0.747-1.394-1.212-2.947-1.393-4.661-0.181-1.714-0.02-3.503 0.483-5.367z" fill="#331d2c" data-fill-palette-color="primary"></path><path d="M186.432 36.818l13.832-22.623c0.03-0.059 0.06-0.118 0.09-0.177 0.021-0.056 0.045-0.111 0.072-0.163v0c0.048-0.094 0.125-0.159 0.232-0.194 0.113-0.032 0.331-0.009 0.656 0.068v0l5.057 1.22c0.127 0.042 0.304 0.073 0.532 0.093 0.233 0.023 0.442 0.08 0.624 0.174v0c0.371 0.189 0.47 0.455 0.295 0.796v0c-0.012 0.024-0.139 0.237-0.382 0.641-0.246 0.394-0.554 0.89-0.926 1.487-0.369 0.592-0.771 1.236-1.208 1.934-0.431 0.701-0.849 1.367-1.254 2-0.401 0.627-0.756 1.177-1.065 1.651-0.305 0.468-0.513 0.766-0.624 0.895v0c0.642-0.022 1.3-0.016 1.975 0.016 0.671 0.038 1.327 0.105 1.968 0.202 0.641 0.097 1.264 0.236 1.869 0.419 0.599 0.179 1.155 0.4 1.667 0.661v0c0.654 0.334 1.217 0.736 1.69 1.207 0.469 0.477 0.805 1.042 1.007 1.694 0.205 0.646 0.246 1.38 0.124 2.201-0.116 0.824-0.432 1.743-0.949 2.757v0c-0.129 0.253-0.27 0.515-0.423 0.786-0.144 0.268-0.307 0.537-0.49 0.808v0l-4.034 6.206c-0.281 0.421-0.553 0.873-0.814 1.355-0.258 0.477-0.518 0.972-0.779 1.485v0c-0.045 0.088-0.08 0.164-0.104 0.225-0.024 0.062-0.047 0.114-0.068 0.155v0c-0.048 0.094-0.124 0.148-0.227 0.162-0.11 0.011-0.325-0.01-0.648-0.063v0l-4.487-0.918c-0.136-0.025-0.316-0.05-0.54-0.075-0.227-0.034-0.433-0.098-0.615-0.192v0c-0.183-0.093-0.302-0.202-0.357-0.326-0.052-0.131-0.018-0.314 0.102-0.55v0c0.479-0.765 0.87-1.379 1.172-1.84 0.3-0.471 0.536-0.848 0.71-1.131 0.177-0.274 0.317-0.484 0.423-0.631 0.096-0.144 0.181-0.275 0.256-0.393 0.075-0.118 0.16-0.249 0.256-0.392 0.102-0.141 0.244-0.354 0.426-0.64 0.177-0.288 0.413-0.665 0.71-1.13 0.3-0.471 0.692-1.087 1.177-1.85v0c0.261-0.409 0.524-0.809 0.791-1.2 0.263-0.4 0.485-0.777 0.665-1.131v0c0.228-0.448 0.412-0.866 0.552-1.256 0.136-0.398 0.212-0.757 0.225-1.076 0.011-0.328-0.054-0.622-0.197-0.88-0.134-0.261-0.366-0.476-0.695-0.644v0c-0.247-0.126-0.61-0.244-1.089-0.355-0.475-0.101-0.987-0.139-1.534-0.114-0.544 0.034-1.084 0.167-1.618 0.399-0.528 0.235-0.963 0.637-1.305 1.206v0c-0.509 0.78-0.919 1.417-1.231 1.911-0.315 0.5-0.577 0.912-0.787 1.236-0.204 0.327-0.367 0.589-0.489 0.786-0.12 0.191-0.226 0.371-0.32 0.539v0c-0.039 0.047-0.124 0.171-0.256 0.37-0.123 0.197-0.276 0.431-0.458 0.702-0.177 0.274-0.365 0.564-0.566 0.869-0.198 0.315-0.385 0.609-0.561 0.883-0.171 0.277-0.318 0.514-0.441 0.711-0.123 0.197-0.199 0.325-0.229 0.384v0c-0.042 0.082-0.075 0.155-0.099 0.217-0.024 0.062-0.05 0.119-0.077 0.172v0c-0.045 0.088-0.124 0.141-0.237 0.158-0.107 0.02-0.316-0.005-0.629-0.076v0l-4.933-0.678c-0.142-0.013-0.322-0.038-0.54-0.075-0.227-0.034-0.433-0.098-0.615-0.192v0c-0.159-0.081-0.269-0.193-0.33-0.335-0.058-0.148-0.033-0.329 0.075-0.541z" fill="#331d2c" data-fill-palette-color="primary"></path><path d="M236.502 45.365l-12.023 11.831c-0.044 0.033-0.078 0.064-0.103 0.095-0.025 0.031-0.05 0.062-0.075 0.093v0c-0.188 0.231-0.309 0.452-0.362 0.664-0.048 0.216-0.069 0.409-0.061 0.578 0.008 0.168 0.025 0.315 0.052 0.439 0.022 0.12 0.014 0.203-0.024 0.249v0c-0.104 0.128-0.341 0.136-0.71 0.023v0l-5.063-1.448c-0.014-0.003-0.05-0.028-0.106-0.074v0c-0.072-0.058-0.094-0.183-0.067-0.374 0.033-0.187 0.094-0.409 0.186-0.667 0.096-0.254 0.207-0.522 0.333-0.803 0.122-0.276 0.239-0.53 0.352-0.763v0c-1.136 0.201-2.174 0.183-3.115-0.054-0.932-0.238-1.734-0.631-2.405-1.178v0c-0.78-0.635-1.401-1.426-1.866-2.375-0.464-0.949-0.727-1.977-0.788-3.086-0.057-1.104 0.108-2.249 0.494-3.435 0.386-1.187 1.038-2.344 1.957-3.473v0c1.081-1.328 2.261-2.385 3.539-3.169 1.278-0.784 2.572-1.305 3.88-1.561 1.305-0.251 2.571-0.235 3.799 0.048 1.233 0.287 2.342 0.832 3.326 1.633v0c0.698 0.568 1.244 1.247 1.641 2.039 0.391 0.787 0.684 1.632 0.88 2.533v0c0.282-0.231 0.497-0.427 0.645-0.588 0.139-0.16 0.266-0.274 0.381-0.342 0.106-0.067 0.218-0.079 0.335-0.035 0.117 0.044 0.292 0.144 0.524 0.299v0c0.747 0.455 1.485 0.91 2.213 1.367 0.729 0.466 1.473 0.977 2.231 1.534zM220.637 52.188l3.942-3.647c0.532-0.454 1.005-0.905 1.42-1.352 0.411-0.442 0.785-0.849 1.123-1.222v0c-0.057-0.234-0.122-0.483-0.197-0.748-0.073-0.256-0.166-0.519-0.278-0.79-0.112-0.271-0.252-0.529-0.418-0.775-0.17-0.241-0.376-0.46-0.618-0.656v0c-0.503-0.409-1.055-0.59-1.656-0.542-0.606 0.053-1.206 0.229-1.8 0.53-0.599 0.306-1.156 0.687-1.674 1.145-0.517 0.457-0.943 0.891-1.277 1.301v0c-1.198 1.472-1.883 2.706-2.053 3.701-0.175 1 0.084 1.782 0.776 2.346v0c0.277 0.225 0.652 0.399 1.125 0.519 0.473 0.121 1.001 0.184 1.585 0.19z" fill="#331d2c" data-fill-palette-color="primary"></path><path d="M237.985 78.142l-3.703-2.63c-0.114-0.078-0.269-0.174-0.464-0.288-0.194-0.124-0.355-0.265-0.484-0.424v0c-0.104-0.128-0.165-0.266-0.183-0.414-0.012-0.152 0.061-0.292 0.221-0.422v0l0.085-0.068c0.549-0.352 1.013-0.651 1.391-0.899 0.378-0.247 0.722-0.47 1.029-0.668 0.312-0.193 0.62-0.396 0.924-0.609 0.303-0.203 0.66-0.441 1.069-0.713 0.404-0.268 0.887-0.587 1.447-0.956 0.555-0.365 1.252-0.824 2.091-1.376v0c0.51-0.337 1.029-0.689 1.556-1.057 0.522-0.364 0.992-0.715 1.408-1.052v0c0.283-0.229 0.525-0.46 0.728-0.693 0.203-0.233 0.348-0.474 0.435-0.723 0.082-0.245 0.097-0.5 0.045-0.764-0.057-0.26-0.203-0.534-0.436-0.822v0c-0.175-0.216-0.463-0.476-0.864-0.781-0.402-0.296-0.86-0.546-1.374-0.75-0.516-0.195-1.065-0.295-1.648-0.299-0.587-0.01-1.152 0.176-1.694 0.556v0c-0.734 0.502-1.364 0.927-1.89 1.277-0.531 0.354-0.98 0.65-1.348 0.888-0.368 0.239-0.671 0.433-0.907 0.583-0.231 0.145-0.424 0.275-0.577 0.391v0c-0.049 0.023-0.165 0.091-0.346 0.203-0.182 0.122-0.399 0.264-0.651 0.426-0.253 0.171-0.518 0.348-0.796 0.531-0.283 0.187-0.551 0.366-0.803 0.536-0.252 0.162-0.467 0.306-0.645 0.434-0.177 0.118-0.286 0.193-0.327 0.226v0c-0.072 0.058-0.131 0.111-0.179 0.158-0.047 0.047-0.094 0.089-0.14 0.126v0c-0.077 0.062-0.17 0.079-0.28 0.049-0.106-0.025-0.289-0.136-0.551-0.333v0l-4.27-2.668c-0.124-0.069-0.281-0.168-0.47-0.296-0.194-0.124-0.353-0.263-0.478-0.416v0c-0.108-0.134-0.171-0.274-0.189-0.422-0.012-0.152 0.061-0.292 0.22-0.422v0l15.318-10.311c0.333-0.219 0.573-0.354 0.719-0.405 0.151-0.055 0.314-0.012 0.488 0.129v0c0.857 0.71 1.735 1.441 2.634 2.194 0.894 0.756 1.821 1.448 2.78 2.074v0c0.062 0.077 0.085 0.131 0.068 0.163-0.008 0.032-0.035 0.067-0.081 0.104v0c-0.021 0.017-0.051 0.037-0.091 0.061-0.045 0.028-0.14 0.084-0.286 0.168-0.149 0.078-0.374 0.205-0.674 0.381-0.3 0.175-0.718 0.416-1.254 0.722v0c0.891 0.342 1.68 0.702 2.37 1.08 0.684 0.382 1.293 0.77 1.825 1.164 0.527 0.398 0.989 0.799 1.384 1.202 0.399 0.408 0.753 0.803 1.061 1.183v0c1.066 1.315 1.443 2.593 1.13 3.835-0.313 1.242-1.266 2.508-2.859 3.799v0c-0.221 0.179-0.456 0.361-0.706 0.547-0.245 0.181-0.503 0.361-0.776 0.54v0l-6.535 4.226c-0.428 0.27-0.813 0.536-1.155 0.796-0.333 0.261-0.718 0.569-1.155 0.923v0c-0.077 0.062-0.139 0.117-0.186 0.164-0.051 0.042-0.095 0.077-0.131 0.106v0c-0.082 0.067-0.173 0.085-0.274 0.056-0.105-0.034-0.293-0.141-0.566-0.32z" fill="#331d2c" data-fill-palette-color="primary"></path><path d="M258.594 88.061l-1.574-2.96c-1.193 0.447-2.377 0.897-3.552 1.349-1.178 0.461-2.258 0.931-3.24 1.408v0c-0.415 0.22-0.742 0.436-0.982 0.645-0.24 0.21-0.407 0.418-0.5 0.625-0.098 0.21-0.135 0.416-0.108 0.62 0.02 0.207 0.086 0.415 0.197 0.625v0c0.18 0.339 0.427 0.683 0.74 1.033 0.313 0.35 0.659 0.683 1.037 1v0c0.121 0.101 0.216 0.188 0.286 0.263 0.079 0.078 0.134 0.146 0.165 0.205v0c0.059 0.111 0.048 0.21-0.032 0.298-0.075 0.085-0.221 0.211-0.439 0.379-0.221 0.162-0.512 0.389-0.875 0.679-0.36 0.281-0.804 0.671-1.333 1.169v0c-0.046 0.04-0.085 0.072-0.118 0.096-0.032 0.024-0.065 0.046-0.1 0.065v0c-0.146 0.078-0.281 0.078-0.404 0.001-0.123-0.077-0.297-0.22-0.521-0.431v0c-0.376-0.355-0.768-0.734-1.178-1.137-0.412-0.395-0.805-0.796-1.179-1.205-0.38-0.405-0.726-0.801-1.037-1.19-0.306-0.392-0.547-0.754-0.724-1.087v0c-0.938-1.764-1.184-3.284-0.74-4.561 0.45-1.28 1.575-2.399 3.373-3.355v0c0.309-0.165 0.631-0.32 0.965-0.468 0.331-0.153 0.68-0.305 1.049-0.457v0c1.119-0.46 2.171-0.903 3.158-1.33 0.989-0.421 1.943-0.819 2.859-1.194v0l-0.889-1.673c-0.304-0.572-0.5-0.996-0.587-1.273-0.09-0.282-0.059-0.463 0.093-0.543v0c0.041-0.022 0.183-0.03 0.426-0.024 0.243 0.006 0.536 0.022 0.88 0.049 0.353 0.03 0.725 0.06 1.116 0.092 0.4 0.034 0.778 0.069 1.134 0.105 0.35 0.039 0.654 0.068 0.912 0.088 0.255 0.029 0.415 0.049 0.481 0.059v0l0.601 1.13c0.85-0.332 1.565-0.614 2.144-0.848 0.574-0.23 1.052-0.424 1.432-0.582 0.381-0.157 0.677-0.27 0.888-0.337 0.214-0.076 0.379-0.119 0.494-0.128 0.112-0.015 0.198-0.001 0.259 0.043 0.054 0.046 0.118 0.109 0.191 0.19v0c0.348 0.429 0.681 0.844 0.998 1.245 0.318 0.4 0.637 0.804 0.958 1.209 0.324 0.397 0.663 0.797 1.02 1.2 0.356 0.402 0.739 0.813 1.149 1.231v0c0.016 0.029 0.029 0.048 0.041 0.057 0.012 0.009 0.026 0.027 0.041 0.057v0c0.068 0.128 0.059 0.216-0.029 0.262v0l-0.026 0.014c-0.612 0.258-1.467 0.608-2.565 1.05-1.098 0.442-2.339 0.94-3.722 1.495v0l2.263 4.257c0.047 0.088 0.062 0.188 0.048 0.301-0.018 0.107-0.097 0.198-0.238 0.272v0c-0.053 0.028-0.277 0.065-0.671 0.11-0.398 0.054-0.922 0.104-1.572 0.15v0l-1.595 0.106c-0.195 0.014-0.352 0-0.472-0.041-0.116-0.036-0.248-0.171-0.396-0.408z" fill="#331d2c" data-fill-palette-color="primary"></path><path d="M248.446 99.551l4.554-1.876c0.006-0.002 0.011-0.008 0.016-0.016 0.004-0.008 0.012-0.015 0.024-0.019v0c0.149-0.054 0.252-0.003 0.308 0.153v0c0.038 0.106 0.03 0.211-0.024 0.314v0c-0.267 0.608-0.43 1.25-0.49 1.925-0.064 0.683 0.025 1.364 0.268 2.043v0c0.065 0.181 0.158 0.382 0.281 0.606 0.128 0.221 0.274 0.422 0.437 0.602 0.172 0.184 0.357 0.318 0.555 0.402 0.207 0.087 0.423 0.091 0.647 0.01v0c0.249-0.089 0.454-0.233 0.614-0.431 0.167-0.2 0.283-0.425 0.349-0.673v0c0.032-0.145 0.098-0.393 0.197-0.745 0.099-0.352 0.202-0.729 0.31-1.134 0.114-0.406 0.22-0.788 0.316-1.146 0.103-0.36 0.178-0.612 0.225-0.755v0c0.203-0.649 0.447-1.193 0.732-1.632 0.291-0.442 0.62-0.819 0.985-1.133 0.368-0.307 0.774-0.566 1.219-0.774 0.451-0.211 0.935-0.409 1.452-0.595v0c0.791-0.283 1.612-0.343 2.465-0.178 0.847 0.167 1.658 0.498 2.433 0.994 0.779 0.487 1.48 1.11 2.103 1.869 0.618 0.762 1.088 1.595 1.412 2.498v0c0.266 0.741 0.417 1.516 0.454 2.324 0.035 0.803-0.108 1.609-0.429 2.42v0c-0.687 0.317-1.373 0.608-2.057 0.874-0.682 0.273-1.392 0.566-2.13 0.88v0c-0.149 0.054-0.261 0.055-0.336 0.004-0.074-0.051-0.127-0.12-0.158-0.206v0c-0.029-0.081-0.026-0.159 0.01-0.236v0c0.155-0.351 0.306-0.704 0.453-1.058 0.145-0.361 0.257-0.724 0.337-1.09 0.08-0.366 0.118-0.738 0.116-1.117-0.004-0.385-0.075-0.767-0.211-1.147v0c-0.087-0.243-0.195-0.475-0.323-0.695-0.122-0.223-0.271-0.412-0.446-0.568-0.173-0.149-0.371-0.25-0.594-0.303-0.231-0.058-0.487-0.036-0.767 0.064v0c-0.324 0.116-0.592 0.258-0.806 0.426-0.208 0.166-0.371 0.435-0.49 0.808v0l-1.011 3.914c-0.185 0.72-0.403 1.325-0.655 1.816-0.253 0.491-0.526 0.905-0.82 1.242-0.3 0.339-0.621 0.609-0.964 0.809-0.341 0.206-0.691 0.374-1.052 0.504v0c-1.015 0.364-1.995 0.452-2.94 0.264-0.939-0.19-1.801-0.566-2.586-1.128-0.778-0.564-1.47-1.268-2.075-2.112-0.601-0.853-1.071-1.752-1.41-2.698v0c-0.259-0.722-0.434-1.446-0.526-2.172-0.085-0.728-0.076-1.438 0.028-2.128z" fill="#331d2c" data-fill-palette-color="primary"></path><path d="M14.215 142.527c0-1.808 1.465-3.273 3.273-3.273 1.808 0 3.273 1.465 3.273 3.273 0 1.808-1.465 3.273-3.273 3.273-1.808 0-3.273-1.465-3.273-3.273z" fill="#331d2c" data-fill-palette-color="primary"></path><path d="M263.962 142.527c0-1.808 1.465-3.273 3.273-3.273 1.808 0 3.273 1.465 3.273 3.273 0 1.808-1.465 3.273-3.273 3.273-1.808 0-3.273-1.465-3.273-3.273z" fill="#331d2c" data-fill-palette-color="primary"></path></g><g id="text-1"><path d="M20.535 178.377l9.701-2.106c0.129-0.031 0.235-0.056 0.32-0.074 0.086-0.012 0.16-0.02 0.221-0.024 0.063 0.002 0.116 0.018 0.158 0.046 0.035 0.024 0.07 0.072 0.105 0.145v0l1.954 3.384c0.052 0.081 0.091 0.166 0.116 0.255v0c0.03 0.101 0.019 0.181-0.033 0.238-0.052 0.057-0.164 0.111-0.335 0.161v0l-3.47 0.686-2.072 0.407c-0.482 0.095-0.951 0.188-1.407 0.281-0.451 0.085-0.869 0.164-1.254 0.237-0.385 0.073-0.729 0.136-1.03 0.191-0.299 0.061-0.539 0.111-0.721 0.151v0l-0.31 0.072c-0.816 0.179-1.626 0.25-2.43 0.212-0.802-0.031-1.54-0.168-2.212-0.411-0.68-0.247-1.269-0.604-1.765-1.071-0.497-0.467-0.847-1.043-1.049-1.727v0c-0.103-0.349-0.174-0.611-0.212-0.786-0.04-0.181-0.054-0.312-0.043-0.39 0.009-0.085 0.04-0.143 0.093-0.173 0.045-0.034 0.099-0.085 0.162-0.151v0l2.448-1.098c0.019-0.006 0.057 0.007 0.115 0.039 0.058 0.031 0.096 0.058 0.117 0.079v0c0.177 0.224 0.365 0.44 0.565 0.65 0.2 0.21 0.414 0.384 0.641 0.524 0.228 0.14 0.477 0.238 0.75 0.296 0.27 0.051 0.563 0.037 0.877-0.043z" fill="#331d2c" data-fill-palette-color="primary"></path><path d="M20.594 193.625v0c-0.389-0.956-0.576-1.854-0.562-2.695 0.018-0.85 0.189-1.623 0.513-2.319 0.315-0.699 0.76-1.309 1.334-1.828 0.574-0.519 1.223-0.926 1.946-1.22v0c0.729-0.297 1.467-0.458 2.213-0.483 0.753-0.028 1.472 0.065 2.159 0.278 0.695 0.217 1.338 0.551 1.929 1.004 0.591 0.452 1.092 1.016 1.502 1.691v0c0.055 0.099 0.1 0.141 0.138 0.126v0c0.074-0.03 0.141-0.065 0.203-0.104 0.054-0.043 0.105-0.075 0.155-0.095v0c0.074-0.03 0.131-0.039 0.171-0.027 0.037 0.021 0.062 0.046 0.074 0.077v0c0.526 1.293 0.826 2.452 0.901 3.479 0.075 1.026-0.026 1.928-0.302 2.704-0.277 0.777-0.706 1.433-1.288 1.969-0.588 0.539-1.276 0.969-2.066 1.291v0c-1.011 0.411-1.98 0.609-2.907 0.594-0.936-0.019-1.795-0.209-2.577-0.569-0.791-0.364-1.485-0.877-2.084-1.54-0.607-0.667-1.091-1.445-1.452-2.333zM25.528 189.432v0c-0.361 0.147-0.707 0.334-1.036 0.561-0.325 0.218-0.598 0.479-0.817 0.782-0.216 0.295-0.357 0.624-0.423 0.987-0.058 0.366 0.001 0.767 0.178 1.201v0c0.137 0.301 0.317 0.542 0.541 0.723 0.22 0.189 0.464 0.325 0.734 0.408 0.266 0.092 0.547 0.142 0.842 0.15 0.296 0.008 0.593-0.009 0.89-0.051 0.288-0.046 0.567-0.106 0.837-0.18 0.267-0.08 0.508-0.164 0.722-0.251v0c0.349-0.142 0.671-0.334 0.966-0.575 0.301-0.244 0.539-0.519 0.714-0.826 0.175-0.307 0.28-0.646 0.314-1.017 0.031-0.362-0.033-0.74-0.193-1.132v0c-0.165-0.404-0.422-0.696-0.773-0.874-0.354-0.185-0.739-0.289-1.155-0.312-0.423-0.021-0.842 0.011-1.258 0.094-0.422 0.086-0.783 0.19-1.083 0.312z" fill="#331d2c" data-fill-palette-color="primary"></path><path d="M29.622 201.101v0c0.936-0.381 1.858-0.758 2.768-1.132 0.909-0.374 1.837-0.769 2.784-1.185v0c0.22-0.093 0.379-0.147 0.476-0.161 0.097-0.014 0.187 0.029 0.269 0.128v0c0.401 0.492 0.818 1.008 1.253 1.549 0.44 0.538 0.902 1.039 1.385 1.501v0c0.015 0.014 0.033 0.042 0.055 0.084v0c0.037 0.07 0.029 0.119-0.024 0.147v0l-9.903 4.103c-0.223 0.088-0.382 0.141-0.476 0.161-0.094 0.02-0.184-0.023-0.268-0.127v0c-0.459-0.461-0.942-0.917-1.449-1.368-0.504-0.46-1.026-0.947-1.566-1.462v0c-0.015-0.014-0.033-0.042-0.055-0.083v0c-0.037-0.07-0.023-0.122 0.041-0.157v0c0.006-0.003 0.094-0.042 0.264-0.116 0.179-0.072 0.406-0.165 0.682-0.281 0.278-0.124 0.589-0.258 0.932-0.401 0.34-0.149 0.685-0.297 1.033-0.443 0.343-0.143 0.675-0.28 0.995-0.411 0.317-0.137 0.585-0.252 0.805-0.346zM37.748 197.754v0c0.29-0.13 0.511-0.228 0.664-0.294 0.152-0.065 0.268-0.115 0.348-0.149 0.079-0.034 0.128-0.056 0.145-0.065 0.018-0.009 0.034-0.014 0.048-0.015 0.012-0.006 0.034-0.014 0.066-0.023 0.029-0.015 0.092-0.045 0.189-0.088 0.097-0.043 0.24-0.104 0.431-0.183 0.188-0.084 0.446-0.197 0.774-0.34v0c0.217-0.099 0.374-0.156 0.471-0.169 0.097-0.014 0.189 0.032 0.274 0.136v0c0.401 0.492 0.818 1.008 1.253 1.549 0.44 0.538 0.902 1.039 1.385 1.502v0c0.015 0.014 0.033 0.042 0.055 0.083v0c-0.032 0.039-0.044 0.079-0.038 0.121v0l-0.003 0.035-2.771 1.19c-0.223 0.088-0.386 0.14-0.489 0.156-0.097 0.014-0.182-0.027-0.256-0.123v0c-0.395-0.495-0.802-0.99-1.22-1.487-0.422-0.503-0.859-1.035-1.312-1.597v0c-0.015-0.014-0.033-0.042-0.055-0.083v0c-0.037-0.07-0.023-0.122 0.041-0.156z" fill="#331d2c" data-fill-palette-color="primary"></path><path d="M36.419 220.376l-2.077-1.819c-0.064-0.061-0.149-0.132-0.257-0.211-0.111-0.085-0.201-0.181-0.269-0.286v0c-0.058-0.089-0.087-0.176-0.089-0.262 0.001-0.095 0.054-0.177 0.16-0.247v0l0.049-0.032c0.358-0.178 0.66-0.332 0.907-0.462 0.245-0.121 0.469-0.231 0.672-0.332 0.194-0.103 0.39-0.207 0.589-0.314 0.199-0.106 0.428-0.228 0.686-0.365 0.267-0.135 0.583-0.298 0.948-0.489 0.359-0.187 0.81-0.423 1.352-0.705v0c0.328-0.175 0.662-0.353 1.001-0.536 0.341-0.191 0.65-0.377 0.927-0.558v0c0.183-0.119 0.343-0.243 0.48-0.372 0.137-0.129 0.24-0.267 0.309-0.416 0.067-0.139 0.092-0.289 0.073-0.45-0.019-0.162-0.091-0.339-0.218-0.533v0c-0.09-0.138-0.247-0.312-0.471-0.522-0.224-0.209-0.484-0.391-0.782-0.544-0.303-0.15-0.63-0.244-0.979-0.284-0.356-0.036-0.708 0.04-1.059 0.229v0c-0.479 0.258-0.889 0.478-1.228 0.66-0.343 0.177-0.632 0.326-0.868 0.449-0.241 0.126-0.437 0.226-0.586 0.299-0.155 0.077-0.281 0.144-0.379 0.201v0c-0.031 0.013-0.106 0.049-0.224 0.11-0.116 0.052-0.255 0.123-0.417 0.214-0.166 0.085-0.34 0.175-0.523 0.27-0.182 0.096-0.352 0.187-0.509 0.273-0.166 0.085-0.308 0.158-0.426 0.219-0.114 0.067-0.183 0.107-0.204 0.122v0c-0.05 0.033-0.091 0.06-0.125 0.081-0.03 0.027-0.061 0.052-0.094 0.074v0c-0.044 0.029-0.099 0.029-0.165 0.001-0.068-0.019-0.173-0.096-0.317-0.232v0l-2.423-1.877c-0.069-0.058-0.157-0.126-0.265-0.206-0.106-0.089-0.193-0.186-0.262-0.291v0c-0.058-0.089-0.087-0.176-0.088-0.263 0.001-0.095 0.054-0.177 0.159-0.246v0l9.925-5.286c0.21-0.114 0.363-0.182 0.459-0.204 0.096-0.023 0.191 0.014 0.285 0.11v0c0.472 0.481 0.96 0.98 1.463 1.496 0.494 0.515 1.011 0.991 1.55 1.429v0c0.033 0.05 0.044 0.086 0.035 0.108-0.007 0.013-0.028 0.03-0.061 0.052v0c-0.011 0.007-0.028 0.018-0.05 0.032-0.031 0.013-0.094 0.038-0.188 0.075-0.096 0.047-0.239 0.112-0.428 0.197-0.195 0.088-0.464 0.208-0.807 0.361v0c0.518 0.262 0.974 0.529 1.365 0.803 0.392 0.273 0.736 0.546 1.033 0.819 0.296 0.272 0.553 0.544 0.768 0.813 0.216 0.27 0.405 0.529 0.568 0.778v0c0.564 0.864 0.714 1.662 0.45 2.396-0.273 0.731-0.933 1.439-1.979 2.122v0c-0.144 0.094-0.298 0.191-0.462 0.29-0.159 0.096-0.326 0.19-0.503 0.281v0l-4.222 2.154c-0.276 0.133-0.524 0.267-0.744 0.403-0.22 0.136-0.473 0.297-0.761 0.485v0c-0.05 0.033-0.09 0.062-0.119 0.09-0.033 0.022-0.064 0.042-0.092 0.059v0c-0.055 0.036-0.111 0.041-0.168 0.015-0.062-0.023-0.171-0.098-0.325-0.226z" fill="#331d2c" data-fill-palette-color="primary"></path><path d="M55.034 229.768l-1.385-1.502c-0.631 0.447-1.26 0.897-1.887 1.349-0.622 0.448-1.185 0.89-1.69 1.328v0c-0.209 0.193-0.368 0.367-0.477 0.522-0.11 0.164-0.177 0.316-0.201 0.455-0.024 0.13-0.013 0.255 0.034 0.373 0.042 0.123 0.112 0.239 0.211 0.346v0c0.157 0.17 0.356 0.333 0.598 0.487 0.237 0.159 0.491 0.303 0.762 0.431v0c0.083 0.041 0.154 0.079 0.213 0.114 0.055 0.03 0.098 0.062 0.129 0.097v0c0.049 0.053 0.059 0.112 0.028 0.176-0.031 0.064-0.1 0.16-0.208 0.287-0.104 0.132-0.24 0.311-0.408 0.538-0.168 0.227-0.37 0.526-0.605 0.895v0c-0.015 0.032-0.033 0.057-0.052 0.075-0.015 0.023-0.03 0.041-0.044 0.055v0c-0.078 0.072-0.158 0.092-0.241 0.06-0.088-0.027-0.212-0.083-0.373-0.169v0c-0.275-0.152-0.565-0.315-0.871-0.492-0.302-0.171-0.597-0.345-0.885-0.52-0.283-0.18-0.547-0.364-0.792-0.552-0.241-0.183-0.437-0.357-0.59-0.522v0c-0.829-0.899-1.211-1.757-1.145-2.574 0.066-0.826 0.556-1.66 1.47-2.503v0c0.156-0.143 0.323-0.284 0.501-0.422 0.169-0.138 0.351-0.283 0.545-0.434v0c0.584-0.44 1.135-0.862 1.651-1.267 0.522-0.4 1.024-0.782 1.507-1.147v0l-0.78-0.846c-0.269-0.292-0.454-0.512-0.556-0.661-0.092-0.149-0.1-0.259-0.022-0.331v0c0.019-0.018 0.102-0.045 0.249-0.081 0.142-0.032 0.316-0.067 0.524-0.105 0.207-0.038 0.431-0.078 0.672-0.12 0.24-0.042 0.467-0.079 0.678-0.113 0.212-0.034 0.398-0.061 0.558-0.083 0.156-0.026 0.25-0.041 0.283-0.045v0l0.531 0.576c0.453-0.328 0.832-0.605 1.136-0.831 0.304-0.226 0.557-0.415 0.76-0.566 0.198-0.146 0.354-0.259 0.47-0.339 0.111-0.075 0.199-0.125 0.266-0.151 0.067-0.025 0.121-0.03 0.162-0.015 0.041 0.016 0.09 0.043 0.144 0.083v0c0.273 0.198 0.532 0.391 0.777 0.579 0.25 0.193 0.499 0.381 0.75 0.564 0.25 0.183 0.512 0.365 0.785 0.545 0.269 0.184 0.558 0.367 0.869 0.547v0c0.018 0.019 0.029 0.032 0.034 0.037 0.009 0 0.021 0.008 0.034 0.022v0c0.058 0.063 0.066 0.115 0.022 0.155v0l-0.015 0.014c-0.319 0.249-0.768 0.587-1.346 1.013-0.579 0.435-1.236 0.924-1.969 1.464v0l1.991 2.159c0.04 0.044 0.066 0.101 0.077 0.172 0.007 0.066-0.024 0.13-0.092 0.192v0c-0.029 0.027-0.156 0.085-0.379 0.175-0.228 0.084-0.53 0.192-0.905 0.321v0l-0.925 0.314c-0.114 0.042-0.208 0.057-0.283 0.044-0.075-0.003-0.173-0.061-0.295-0.173z" fill="#331d2c" data-fill-palette-color="primary"></path><path d="M51.949 238.742l11.549-11.288c0.03-0.035 0.056-0.069 0.077-0.103 0.017-0.029 0.038-0.059 0.065-0.089v0c0.044-0.05 0.101-0.075 0.171-0.074 0.07 0 0.198 0.046 0.381 0.136v0l2.797 1.474c0.068 0.042 0.17 0.087 0.305 0.135 0.13 0.052 0.242 0.12 0.336 0.202v0c0.194 0.17 0.215 0.342 0.063 0.516v0c-0.009 0.01-0.117 0.113-0.324 0.31-0.202 0.201-0.458 0.447-0.767 0.74-0.308 0.302-0.643 0.624-1.005 0.966-0.361 0.352-0.707 0.682-1.038 0.99-0.336 0.313-0.627 0.585-0.874 0.817-0.256 0.233-0.425 0.38-0.505 0.441v0c0.385 0.082 0.771 0.183 1.159 0.303 0.393 0.124 0.772 0.263 1.138 0.417 0.361 0.149 0.706 0.324 1.033 0.522 0.332 0.194 0.629 0.406 0.893 0.637v0c0.338 0.296 0.61 0.618 0.816 0.965 0.206 0.357 0.321 0.738 0.343 1.145 0.023 0.416-0.063 0.859-0.257 1.331-0.189 0.467-0.513 0.962-0.97 1.484v0c-0.113 0.129-0.236 0.264-0.367 0.404-0.127 0.135-0.266 0.268-0.416 0.4v0l-3.299 3.059c-0.235 0.208-0.463 0.434-0.686 0.678-0.223 0.244-0.45 0.498-0.681 0.762v0c-0.039 0.045-0.069 0.084-0.091 0.118-0.026 0.03-0.05 0.057-0.071 0.083v0c-0.044 0.05-0.096 0.07-0.158 0.059-0.066-0.005-0.191-0.048-0.374-0.13v0l-2.513-1.211c-0.073-0.037-0.174-0.082-0.304-0.135-0.13-0.052-0.242-0.12-0.337-0.203v0c-0.09-0.078-0.142-0.159-0.157-0.242-0.015-0.083 0.03-0.185 0.135-0.305v0c0.397-0.382 0.718-0.69 0.965-0.921 0.247-0.232 0.444-0.416 0.59-0.552 0.15-0.141 0.265-0.247 0.344-0.318 0.08-0.071 0.148-0.134 0.206-0.19 0.067-0.056 0.14-0.119 0.219-0.19 0.08-0.071 0.195-0.177 0.344-0.318 0.15-0.141 0.346-0.33 0.589-0.566 0.247-0.232 0.571-0.537 0.973-0.915v0c0.217-0.197 0.431-0.392 0.643-0.584 0.217-0.197 0.403-0.385 0.56-0.564v0c0.205-0.234 0.378-0.456 0.518-0.667 0.141-0.211 0.238-0.412 0.291-0.603 0.053-0.191 0.06-0.374 0.02-0.55-0.044-0.17-0.151-0.33-0.32-0.478v0c-0.129-0.113-0.325-0.236-0.587-0.369-0.267-0.137-0.564-0.239-0.892-0.306-0.327-0.058-0.665-0.059-1.012-0.003-0.352 0.061-0.669 0.232-0.951 0.512v0c-0.415 0.384-0.755 0.701-1.019 0.954-0.26 0.247-0.474 0.451-0.642 0.611-0.167 0.161-0.302 0.289-0.403 0.386-0.101 0.096-0.194 0.186-0.277 0.271v0c-0.031 0.025-0.097 0.086-0.199 0.182-0.106 0.101-0.232 0.215-0.378 0.341-0.146 0.136-0.3 0.282-0.463 0.439-0.168 0.152-0.322 0.298-0.464 0.438-0.141 0.131-0.265 0.247-0.37 0.348-0.096 0.1-0.158 0.165-0.184 0.195v0c-0.039 0.045-0.072 0.082-0.098 0.112-0.021 0.034-0.045 0.066-0.071 0.096v0c-0.035 0.04-0.088 0.055-0.159 0.046-0.07 0-0.193-0.046-0.367-0.138v0l-2.81-1.129c-0.077-0.032-0.181-0.075-0.311-0.127-0.126-0.057-0.236-0.127-0.33-0.21v0c-0.08-0.07-0.127-0.151-0.142-0.243-0.016-0.093 0.025-0.194 0.12-0.304z" fill="#331d2c" data-fill-palette-color="primary"></path><path d="M77.279 242.951v0c0.574 0.39 1.024 0.852 1.35 1.385 0.32 0.529 0.533 1.081 0.638 1.656 0.103 0.566 0.1 1.123-0.009 1.673-0.106 0.544-0.301 1.026-0.587 1.448v0c-0.256 0.378-0.628 0.677-1.114 0.898-0.486 0.221-1.037 0.343-1.651 0.366-0.62 0.018-1.285-0.073-1.996-0.276-0.706-0.208-1.407-0.548-2.101-1.02v0c-0.367-0.249-0.725-0.545-1.077-0.887v0c-0.147 0.276-0.221 0.549-0.221 0.821-0.004 0.277 0.051 0.542 0.166 0.797 0.11 0.25 0.269 0.487 0.478 0.708 0.2 0.224 0.431 0.425 0.694 0.603v0c0.29 0.197 0.588 0.359 0.893 0.487 0.302 0.133 0.606 0.244 0.913 0.332 0.306 0.08 0.609 0.146 0.909 0.198 0.297 0.058 0.582 0.103 0.855 0.137v0c0.062 0.026 0.119 0.049 0.17 0.067 0.046 0.015 0.085 0.034 0.118 0.056v0c0 0-0.033 0.049-0.101 0.148-0.072 0.095-0.168 0.23-0.287 0.405-0.119 0.175-0.262 0.386-0.429 0.632-0.173 0.242-0.366 0.515-0.579 0.817v0c-0.002 0.038-0.009 0.078-0.02 0.118-0.013 0.031-0.025 0.055-0.037 0.072v0c-0.052 0.077-0.174 0.109-0.367 0.098-0.191-0.002-0.423-0.031-0.695-0.088-0.277-0.052-0.582-0.132-0.917-0.239-0.333-0.098-0.664-0.211-0.993-0.339-0.333-0.122-0.643-0.253-0.932-0.393-0.294-0.144-0.542-0.284-0.745-0.422v0c-0.651-0.442-1.207-0.984-1.667-1.624-0.46-0.64-0.784-1.336-0.97-2.086-0.19-0.745-0.218-1.515-0.085-2.312 0.124-0.795 0.443-1.57 0.956-2.325v0c0.539-0.793 1.176-1.444 1.913-1.951 0.745-0.509 1.539-0.853 2.38-1.033 0.842-0.18 1.705-0.185 2.59-0.016 0.885 0.169 1.737 0.532 2.557 1.089zM75.534 245.292v0c-0.252-0.171-0.517-0.275-0.795-0.313-0.282-0.032-0.573-0.01-0.873 0.067-0.309 0.078-0.621 0.214-0.936 0.407-0.312 0.188-0.619 0.423-0.923 0.705v0c0.693 0.31 1.285 0.545 1.777 0.703 0.498 0.162 0.912 0.264 1.244 0.305 0.332 0.041 0.59 0.037 0.776-0.012 0.189-0.055 0.323-0.14 0.401-0.255v0c0.074-0.109 0.104-0.241 0.089-0.396-0.019-0.149-0.064-0.3-0.136-0.452-0.068-0.158-0.161-0.305-0.277-0.44-0.116-0.135-0.232-0.241-0.347-0.319z" fill="#331d2c" data-fill-palette-color="primary"></path><path d="M83.85 260.65l1.499-3.614c0.003-0.006 0.003-0.013-0.001-0.022-0.003-0.009-0.003-0.016 0-0.022v0c0.053-0.114 0.14-0.143 0.259-0.087v0c0.06 0.028 0.112 0.089 0.156 0.183v0c0.202 0.504 0.475 0.957 0.819 1.36 0.344 0.403 0.774 0.725 1.289 0.966v0c0.138 0.065 0.303 0.124 0.497 0.178 0.194 0.054 0.384 0.085 0.571 0.093 0.195 0.004 0.374-0.026 0.534-0.089 0.158-0.057 0.278-0.173 0.36-0.346v0c0.09-0.192 0.126-0.386 0.11-0.584-0.02-0.192-0.082-0.378-0.187-0.559v0c-0.043-0.064-0.102-0.172-0.177-0.324-0.078-0.146-0.163-0.314-0.257-0.504-0.093-0.19-0.192-0.393-0.294-0.61-0.106-0.21-0.204-0.414-0.295-0.609-0.088-0.187-0.167-0.36-0.239-0.518-0.075-0.152-0.129-0.269-0.165-0.351v0c-0.252-0.476-0.422-0.914-0.512-1.314-0.093-0.409-0.121-0.802-0.082-1.178 0.032-0.379 0.111-0.751 0.238-1.116 0.133-0.361 0.292-0.74 0.478-1.135v0c0.272-0.581 0.669-1.067 1.188-1.458 0.52-0.392 1.125-0.663 1.817-0.813 0.692-0.15 1.444-0.174 2.257-0.07 0.813 0.104 1.654 0.36 2.522 0.767v0c0.102 0.048 0.255 0.134 0.46 0.259 0.198 0.122 0.414 0.271 0.645 0.446 0.226 0.172 0.45 0.365 0.672 0.577 0.227 0.216 0.414 0.45 0.558 0.701v0c0.047 0.088 0.08 0.165 0.099 0.233 0.017 0.074 0.007 0.171-0.028 0.293v0c-0.223 0.553-0.443 1.092-0.661 1.619-0.226 0.529-0.461 1.091-0.703 1.686v0c-0.053 0.114-0.109 0.179-0.168 0.195-0.065 0.013-0.133 0.003-0.205-0.03v0c-0.072-0.034-0.12-0.078-0.145-0.134v0c-0.102-0.281-0.211-0.563-0.328-0.844-0.122-0.284-0.261-0.55-0.415-0.797-0.16-0.25-0.346-0.477-0.558-0.679-0.215-0.211-0.47-0.385-0.763-0.522v0c-0.18-0.084-0.366-0.154-0.56-0.208-0.194-0.054-0.382-0.073-0.565-0.057-0.186 0.008-0.354 0.061-0.502 0.159-0.154 0.096-0.282 0.251-0.383 0.467v0c-0.104 0.222-0.168 0.429-0.193 0.621-0.022 0.187 0.046 0.409 0.203 0.665v0l1.621 2.734c0.291 0.516 0.5 0.99 0.626 1.422 0.132 0.435 0.201 0.84 0.208 1.215 0.006 0.376-0.029 0.724-0.107 1.046-0.084 0.319-0.193 0.622-0.328 0.909v0c-0.216 0.461-0.496 0.863-0.84 1.206-0.347 0.334-0.733 0.613-1.16 0.836-0.426 0.224-0.881 0.39-1.363 0.5-0.482 0.11-0.974 0.168-1.473 0.175-0.491 0.003-0.976-0.045-1.455-0.146-0.485-0.103-0.934-0.252-1.347-0.446v0c-0.323-0.152-0.642-0.305-0.957-0.46-0.306-0.158-0.598-0.328-0.878-0.51-0.28-0.182-0.536-0.383-0.769-0.602-0.239-0.222-0.447-0.473-0.623-0.752z" fill="#331d2c" data-fill-palette-color="primary"></path><path d="M102.749 267.98l-4.025 4.366c-0.021 0.021-0.044 0.037-0.069 0.049-0.019 0.015-0.05 0.014-0.094 0v0c-0.044-0.015-0.074-0.029-0.091-0.041v0c-0.219-0.179-0.427-0.337-0.625-0.474-0.204-0.139-0.404-0.27-0.601-0.392-0.202-0.124-0.412-0.248-0.628-0.37-0.209-0.127-0.433-0.258-0.673-0.396v0c-0.063-0.042-0.107-0.085-0.134-0.129-0.027-0.044-0.028-0.104-0.002-0.179v0c0.006-0.019 0.036-0.065 0.088-0.137 0.051-0.067 0.165-0.209 0.344-0.428 0.183-0.21 0.453-0.513 0.811-0.909 0.36-0.402 0.849-0.938 1.467-1.609v0c0.01-0.381 0.032-0.837 0.066-1.37 0.032-0.527 0.073-1.103 0.125-1.728 0.043-0.621 0.091-1.278 0.145-1.973 0.062-0.698 0.122-1.401 0.18-2.107 0.058-0.707 0.115-1.41 0.17-2.11 0.054-0.694 0.104-1.358 0.151-1.992v0c-0.014-0.123-0.011-0.224 0.008-0.301 0.019-0.077 0.036-0.138 0.051-0.181v0c0.034-0.1 0.112-0.144 0.233-0.131v0c0.579 0.064 1.181 0.131 1.806 0.204 0.621 0.064 1.225 0.083 1.813 0.059v0c0.027 0.002 0.06 0.01 0.097 0.022v0c0.094 0.032 0.132 0.083 0.115 0.154v0l-1.106 7.408c0.061-0.077 0.169-0.211 0.325-0.403 0.147-0.187 0.326-0.417 0.536-0.688 0.217-0.269 0.452-0.562 0.708-0.881 0.257-0.325 0.518-0.652 0.782-0.981 0.267-0.335 0.53-0.669 0.79-1 0.267-0.335 0.516-0.646 0.745-0.931 0.223-0.287 0.42-0.539 0.59-0.753 0.173-0.221 0.305-0.385 0.398-0.494v0c0.048-0.06 0.11-0.078 0.185-0.052v0c0.025 0.008 0.04 0.017 0.044 0.025 0.006 0.002 0.019 0.006 0.038 0.013v0c0.452 0.377 0.928 0.723 1.428 1.039 0.509 0.312 1.012 0.619 1.511 0.921v0c0.123 0.07 0.163 0.167 0.121 0.292v0c-0.03 0.088-0.12 0.211-0.272 0.369v0z" fill="#331d2c" data-fill-palette-color="primary"></path><path d="M128.306 273.548l-2.789 0.237c-0.082 0.005-0.192 0.018-0.33 0.04-0.139 0.021-0.27 0.02-0.393-0.003v0c-0.098-0.018-0.181-0.057-0.251-0.117-0.062-0.065-0.081-0.16-0.058-0.283v0l0.011-0.059c0.144-0.518 0.265-0.936 0.364-1.254 0.101-0.324 0.18-0.585 0.237-0.783 0.056-0.191 0.101-0.341 0.134-0.45 0.039-0.1 0.073-0.192 0.101-0.273 0.03-0.089 0.062-0.187 0.096-0.295 0.026-0.103 0.071-0.253 0.134-0.45 0.056-0.191 0.13-0.447 0.223-0.765 0.094-0.326 0.216-0.747 0.367-1.264v0c0.08-0.288 0.163-0.568 0.247-0.842 0.086-0.28 0.15-0.537 0.194-0.771v0c0.057-0.306 0.092-0.585 0.106-0.838 0.013-0.253-0.006-0.475-0.058-0.667-0.045-0.19-0.13-0.35-0.253-0.481-0.131-0.125-0.308-0.209-0.529-0.25v0c-0.137-0.025-0.321-0.029-0.553-0.012-0.225 0.019-0.462 0.079-0.709 0.181-0.255 0.107-0.493 0.265-0.714 0.472-0.227 0.207-0.4 0.487-0.52 0.842v0l-0.009 0.049c-0.237 0.803-0.444 1.498-0.62 2.084-0.183 0.585-0.341 1.09-0.474 1.516-0.125 0.421-0.231 0.771-0.317 1.051-0.086 0.28-0.16 0.518-0.224 0.716-0.056 0.191-0.102 0.351-0.139 0.478-0.031 0.129-0.056 0.248-0.077 0.359v0c-0.011 0.059-0.02 0.107-0.028 0.146-0.001 0.04-0.004 0.077-0.01 0.11v0c-0.011 0.059-0.046 0.102-0.105 0.131-0.066 0.028-0.195 0.054-0.388 0.079v0l-2.672 0.26c-0.082 0.005-0.192 0.018-0.33 0.039-0.139 0.021-0.27 0.02-0.393-0.002v0c-0.098-0.018-0.181-0.057-0.251-0.118-0.068-0.067-0.091-0.162-0.068-0.285v0l0.011-0.058c0.15-0.517 0.272-0.935 0.365-1.254 0.094-0.326 0.173-0.587 0.236-0.784 0.062-0.19 0.11-0.339 0.144-0.447 0.032-0.102 0.063-0.193 0.092-0.276 0.03-0.089 0.062-0.187 0.095-0.295 0.032-0.102 0.077-0.251 0.134-0.449 0.056-0.191 0.13-0.447 0.223-0.766 0.094-0.326 0.213-0.747 0.357-1.265v0c0.087-0.287 0.173-0.567 0.257-0.84 0.086-0.28 0.15-0.537 0.194-0.772v0c0.057-0.306 0.092-0.585 0.106-0.838 0.02-0.252 0.007-0.473-0.038-0.663-0.039-0.189-0.114-0.347-0.224-0.475-0.112-0.122-0.269-0.201-0.47-0.239v0c-0.143-0.027-0.345-0.027-0.606-0.002-0.26 0.026-0.533 0.099-0.818 0.221-0.277 0.117-0.535 0.291-0.773 0.522-0.239 0.238-0.412 0.552-0.519 0.943v0c-0.157 0.516-0.283 0.943-0.379 1.281-0.102 0.331-0.183 0.605-0.244 0.823-0.061 0.217-0.11 0.39-0.147 0.517-0.032 0.135-0.065 0.257-0.098 0.366v0c-0.013 0.031-0.037 0.111-0.075 0.238-0.038 0.134-0.084 0.29-0.138 0.469-0.053 0.178-0.106 0.37-0.158 0.576-0.059 0.211-0.113 0.406-0.159 0.586-0.053 0.178-0.096 0.335-0.128 0.47-0.037 0.128-0.059 0.208-0.065 0.24v0l-0.036 0.195c-0.013 0.072-0.027 0.129-0.043 0.174-0.016 0.051-0.048 0.095-0.095 0.134-0.04 0.033-0.099 0.062-0.178 0.088-0.071 0.02-0.173 0.042-0.305 0.064v0l-3.005 0.48c-0.089 0.01-0.2 0.027-0.332 0.049-0.137 0.015-0.268 0.011-0.391-0.012v0c-0.104-0.019-0.188-0.058-0.251-0.117-0.068-0.067-0.091-0.162-0.068-0.286v0l3.022-10.809c0.063-0.23 0.119-0.388 0.168-0.473 0.049-0.085 0.142-0.128 0.277-0.131v0c0.674-0.009 1.366-0.018 2.074-0.027 0.707-0.003 1.408-0.047 2.103-0.133v0c0.059 0.011 0.089 0.027 0.092 0.047 0.011 0.015 0.012 0.043 0.005 0.082v0l-0.429 1.545c0.285-0.088 0.609-0.183 0.971-0.284 0.361-0.094 0.736-0.176 1.126-0.244 0.39-0.069 0.781-0.114 1.175-0.135 0.394-0.021 0.77 0.002 1.127 0.069v0c0.494 0.092 0.931 0.291 1.312 0.597 0.374 0.305 0.649 0.743 0.825 1.314v0c0.364-0.148 0.744-0.275 1.141-0.383 0.398-0.114 0.798-0.201 1.199-0.261 0.401-0.06 0.797-0.09 1.187-0.092 0.397 0 0.774 0.033 1.132 0.1v0c0.455 0.085 0.872 0.23 1.251 0.435 0.372 0.204 0.681 0.48 0.926 0.828 0.245 0.348 0.41 0.776 0.497 1.284 0.082 0.5 0.06 1.088-0.066 1.763v0c-0.033 0.176-0.069 0.354-0.109 0.535-0.04 0.181-0.089 0.367-0.144 0.558v0l-1.357 4.521c-0.095 0.292-0.169 0.564-0.222 0.816-0.054 0.252-0.112 0.548-0.175 0.886v0c-0.011 0.059-0.017 0.108-0.018 0.148-0.007 0.039-0.014 0.075-0.02 0.107v0c-0.012 0.065-0.047 0.109-0.105 0.132-0.059 0.029-0.189 0.056-0.388 0.079z" fill="#331d2c" data-fill-palette-color="primary"></path><path d="M138.612 266.601l-0.044 0.167c-0.058 0.7-0.109 1.267-0.153 1.703-0.044 0.435-0.08 0.792-0.107 1.069-0.033 0.27-0.059 0.485-0.076 0.643-0.017 0.158-0.031 0.307-0.041 0.446v0c0.154 0.441 0.393 0.804 0.716 1.09 0.324 0.28 0.713 0.425 1.17 0.437v0c0.403 0.01 0.76-0.106 1.071-0.35 0.311-0.243 0.57-0.564 0.779-0.962 0.209-0.398 0.372-0.844 0.49-1.337 0.112-0.493 0.174-0.985 0.187-1.474v0c0.01-0.403-0.013-0.778-0.07-1.123-0.064-0.346-0.162-0.646-0.295-0.901-0.132-0.255-0.299-0.454-0.5-0.598-0.208-0.151-0.454-0.23-0.738-0.237v0c-0.231-0.006-0.464 0.034-0.698 0.121-0.234 0.087-0.458 0.197-0.673 0.33-0.215 0.14-0.411 0.297-0.588 0.471-0.176 0.174-0.32 0.342-0.43 0.505zM138.879 263.561v0c0.619-0.401 1.269-0.715 1.949-0.942 0.681-0.234 1.385-0.341 2.112-0.323v0c0.688 0.018 1.279 0.175 1.774 0.472 0.489 0.29 0.892 0.678 1.211 1.163 0.318 0.491 0.549 1.049 0.691 1.675 0.136 0.625 0.195 1.275 0.178 1.949v0c-0.015 0.595-0.087 1.195-0.215 1.801-0.134 0.599-0.321 1.179-0.56 1.742-0.246 0.563-0.541 1.088-0.884 1.575-0.35 0.487-0.748 0.91-1.194 1.269-0.446 0.352-0.936 0.628-1.47 0.826-0.541 0.198-1.122 0.289-1.744 0.273v0c-0.549-0.014-1.068-0.137-1.558-0.368-0.497-0.231-0.959-0.527-1.387-0.889v0c-0.001 0.04-0.014 0.172-0.04 0.396-0.026 0.231-0.056 0.511-0.091 0.841-0.042 0.33-0.084 0.683-0.126 1.059-0.049 0.369-0.091 0.719-0.126 1.048-0.042 0.33-0.072 0.61-0.091 0.841-0.026 0.231-0.039 0.363-0.04 0.396v0c-0.002 0.059-0.003 0.109-0.004 0.149 0.006 0.04 0.008 0.08 0.007 0.119v0c-0.001 0.053-0.029 0.098-0.083 0.137-0.061 0.045-0.184 0.088-0.371 0.13v0l-2.905 0.659c-0.08 0.024-0.187 0.058-0.32 0.101-0.133 0.043-0.263 0.063-0.388 0.06v0c-0.099-0.003-0.188-0.031-0.266-0.087-0.072-0.048-0.106-0.142-0.102-0.28v0l1.742-16.012c0.033-0.237 0.067-0.402 0.102-0.493 0.035-0.092 0.12-0.149 0.252-0.172v0c0.665-0.115 1.349-0.233 2.053-0.354 0.704-0.114 1.393-0.269 2.067-0.463v0c0.059 0.002 0.092 0.012 0.098 0.032 0.013 0.014 0.019 0.04 0.018 0.08v0c0 0.013-0.004 0.033-0.012 0.059-0.001 0.033-0.012 0.099-0.035 0.198-0.023 0.105-0.053 0.26-0.091 0.464-0.038 0.211-0.089 0.501-0.151 0.869z" fill="#331d2c" data-fill-palette-color="primary"></path><path d="M150.333 274.52l-0.356-16.145c-0.005-0.046-0.012-0.089-0.022-0.127-0.01-0.032-0.017-0.068-0.021-0.108v0c-0.007-0.066 0.014-0.124 0.062-0.175 0.048-0.051 0.168-0.113 0.36-0.186v0l2.988-1.036c0.078-0.021 0.18-0.064 0.306-0.13 0.127-0.059 0.253-0.095 0.378-0.108v0c0.257-0.026 0.396 0.077 0.419 0.307v0c0.001 0.013 0.003 0.163 0.005 0.448 0.009 0.285 0.014 0.64 0.017 1.065 0.01 0.431 0.016 0.896 0.019 1.394 0.01 0.504 0.015 0.982 0.014 1.435-0.001 0.459-0.001 0.857 0 1.196-0.005 0.346-0.013 0.57-0.023 0.67v0c0.323-0.225 0.661-0.438 1.013-0.639 0.359-0.202 0.719-0.384 1.082-0.547 0.356-0.162 0.718-0.294 1.086-0.398 0.368-0.11 0.726-0.182 1.075-0.217v0c0.448-0.045 0.868-0.024 1.263 0.064 0.401 0.093 0.758 0.27 1.07 0.531 0.319 0.267 0.585 0.633 0.797 1.097 0.212 0.457 0.352 1.032 0.422 1.722v0c0.017 0.171 0.032 0.352 0.044 0.544 0.012 0.185 0.014 0.377 0.008 0.578v0l-0.02 4.498c-0.009 0.313 0 0.635 0.027 0.964 0.026 0.33 0.057 0.669 0.091 1.018v0c0.006 0.059 0.014 0.108 0.025 0.147 0.004 0.039 0.008 0.076 0.011 0.109v0c0.007 0.066-0.015 0.118-0.064 0.156-0.049 0.045-0.166 0.106-0.351 0.184v0l-2.601 1.008c-0.077 0.028-0.179 0.071-0.306 0.13-0.127 0.059-0.253 0.095-0.378 0.107v0c-0.118 0.012-0.213-0.005-0.284-0.051-0.071-0.046-0.114-0.148-0.131-0.306v0c-0.008-0.551-0.013-0.996-0.013-1.335-0.001-0.339-0.001-0.608-0.001-0.807-0.001-0.206 0-0.362 0.003-0.469 0.003-0.107 0.003-0.2 0.002-0.279 0.005-0.087 0.008-0.184 0.011-0.29 0.003-0.107 0.004-0.263 0.003-0.469-0.001-0.206-0.005-0.478-0.012-0.817-0.001-0.339-0.002-0.784-0.003-1.335v0c0.004-0.293 0.008-0.582 0.012-0.869 0.004-0.293-0.006-0.558-0.029-0.794v0c-0.031-0.309-0.075-0.587-0.133-0.835-0.058-0.247-0.138-0.455-0.242-0.623-0.103-0.169-0.233-0.299-0.388-0.39-0.155-0.084-0.344-0.115-0.567-0.093v0c-0.171 0.017-0.395 0.076-0.671 0.176-0.282 0.101-0.56 0.249-0.833 0.442-0.266 0.199-0.497 0.445-0.694 0.738-0.196 0.299-0.288 0.647-0.274 1.044v0c-0.003 0.565-0.003 1.031-0.001 1.396 0.003 0.359 0.005 0.654 0.009 0.886 0.003 0.232 0.005 0.418 0.006 0.558 0.001 0.14 0.004 0.269 0.009 0.388v0c-0.003 0.04-0.004 0.13-0.003 0.269 0.001 0.146-0.002 0.316-0.009 0.51 0 0.199 0.001 0.412 0.004 0.637-0.004 0.226-0.003 0.439 0.004 0.638-0.001 0.193 0 0.362 0 0.508 0.007 0.139 0.013 0.228 0.017 0.268v0c0.006 0.059 0.011 0.109 0.015 0.148 0.011 0.039 0.018 0.078 0.022 0.117v0c0.005 0.053-0.02 0.102-0.075 0.147-0.048 0.051-0.165 0.11-0.352 0.175v0l-2.743 1.281c-0.076 0.034-0.178 0.081-0.305 0.14-0.128 0.053-0.254 0.085-0.379 0.098v0c-0.105 0.011-0.197-0.01-0.276-0.062-0.078-0.052-0.125-0.15-0.139-0.296z" fill="#331d2c" data-fill-palette-color="primary"></path><path d="M173.075 271.425v0c-1.005 0.235-1.921 0.279-2.75 0.133-0.837-0.151-1.573-0.44-2.21-0.869-0.642-0.421-1.174-0.955-1.597-1.603-0.423-0.648-0.724-1.352-0.901-2.112v0c-0.179-0.766-0.223-1.52-0.132-2.262 0.09-0.748 0.294-1.444 0.612-2.089 0.323-0.653 0.754-1.236 1.293-1.748 0.539-0.513 1.174-0.92 1.905-1.22v0c0.106-0.038 0.155-0.077 0.146-0.116v0c-0.018-0.077-0.042-0.15-0.071-0.217-0.034-0.06-0.058-0.116-0.07-0.167v0c-0.018-0.077-0.018-0.135 0.001-0.174 0.026-0.033 0.055-0.054 0.087-0.061v0c1.359-0.318 2.551-0.433 3.577-0.347 1.025 0.086 1.9 0.327 2.623 0.722 0.724 0.395 1.305 0.921 1.745 1.579 0.441 0.664 0.758 1.412 0.952 2.242v0c0.248 1.063 0.293 2.051 0.132 2.965-0.165 0.921-0.486 1.74-0.964 2.456-0.483 0.724-1.098 1.33-1.847 1.817-0.754 0.495-1.597 0.852-2.531 1.071zM169.705 265.896v0c0.089 0.38 0.219 0.75 0.392 1.111 0.165 0.355 0.38 0.665 0.645 0.929 0.258 0.259 0.56 0.45 0.908 0.572 0.353 0.115 0.758 0.118 1.215 0.011v0c0.319-0.088 0.585-0.228 0.798-0.42 0.221-0.188 0.394-0.408 0.518-0.661 0.132-0.248 0.225-0.518 0.279-0.809 0.054-0.291 0.084-0.587 0.088-0.887 0-0.292-0.016-0.577-0.047-0.855-0.037-0.277-0.083-0.527-0.135-0.753v0c-0.086-0.367-0.225-0.715-0.417-1.043-0.194-0.335-0.429-0.613-0.704-0.834-0.276-0.221-0.594-0.377-0.955-0.47-0.353-0.087-0.736-0.083-1.149 0.014v0c-0.425 0.099-0.753 0.308-0.984 0.627-0.238 0.32-0.4 0.684-0.488 1.093-0.087 0.414-0.121 0.833-0.104 1.256 0.019 0.43 0.065 0.803 0.14 1.119z" fill="#331d2c" data-fill-palette-color="primary"></path><path d="M194.159 263.637l-2.232 1.624c-0.074 0.049-0.161 0.116-0.263 0.204-0.108 0.09-0.221 0.156-0.338 0.2v0c-0.099 0.037-0.191 0.046-0.276 0.028-0.093-0.022-0.161-0.092-0.205-0.209v0l-0.02-0.056c-0.095-0.388-0.179-0.717-0.251-0.987-0.064-0.266-0.122-0.508-0.176-0.728-0.058-0.211-0.116-0.426-0.176-0.644-0.06-0.218-0.128-0.467-0.205-0.749-0.073-0.29-0.162-0.635-0.267-1.033-0.104-0.392-0.233-0.883-0.39-1.474v0c-0.098-0.359-0.199-0.723-0.302-1.095-0.111-0.375-0.225-0.717-0.34-1.027v0c-0.076-0.205-0.162-0.388-0.257-0.55-0.096-0.162-0.208-0.293-0.337-0.393-0.121-0.096-0.262-0.153-0.424-0.171-0.162-0.017-0.351 0.014-0.568 0.095v0c-0.155 0.058-0.359 0.172-0.612 0.344-0.254 0.172-0.488 0.386-0.703 0.643-0.213 0.263-0.377 0.56-0.494 0.893-0.114 0.339-0.117 0.7-0.009 1.083v0c0.146 0.524 0.27 0.972 0.373 1.343 0.097 0.373 0.179 0.689 0.246 0.946 0.07 0.263 0.124 0.476 0.163 0.638 0.041 0.168 0.079 0.306 0.111 0.413v0c0.005 0.033 0.025 0.114 0.059 0.243 0.025 0.125 0.064 0.276 0.116 0.455 0.046 0.18 0.095 0.37 0.149 0.569 0.053 0.199 0.104 0.385 0.154 0.556 0.046 0.18 0.086 0.335 0.119 0.464 0.04 0.126 0.065 0.202 0.074 0.227v0c0.021 0.056 0.038 0.102 0.052 0.139 0.02 0.035 0.037 0.071 0.051 0.108v0c0.018 0.05 0.007 0.103-0.036 0.161-0.033 0.062-0.132 0.148-0.295 0.259v0l-2.366 1.949c-0.071 0.055-0.158 0.126-0.259 0.213-0.11 0.083-0.224 0.147-0.342 0.191v0c-0.099 0.037-0.191 0.046-0.275 0.028-0.093-0.022-0.161-0.092-0.205-0.21v0l-2.967-10.846c-0.064-0.23-0.097-0.394-0.099-0.492-0.001-0.098 0.055-0.183 0.17-0.254v0c0.574-0.355 1.168-0.72 1.783-1.098 0.611-0.368 1.189-0.767 1.736-1.196v0c0.056-0.021 0.093-0.024 0.112-0.01 0.011 0.01 0.023 0.034 0.037 0.071v0c0.005 0.012 0.012 0.031 0.021 0.056 0.005 0.033 0.016 0.1 0.032 0.2 0.025 0.104 0.057 0.258 0.097 0.461 0.043 0.21 0.101 0.499 0.175 0.866v0c0.37-0.448 0.731-0.833 1.084-1.154 0.353-0.322 0.695-0.597 1.026-0.827 0.331-0.229 0.652-0.419 0.963-0.57 0.311-0.151 0.606-0.278 0.884-0.382v0c0.967-0.36 1.779-0.33 2.436 0.089 0.653 0.427 1.197 1.227 1.633 2.398v0c0.06 0.161 0.12 0.333 0.181 0.515 0.058 0.176 0.113 0.36 0.164 0.553v0l1.169 4.593c0.069 0.299 0.145 0.57 0.229 0.814 0.084 0.244 0.186 0.527 0.306 0.85v0c0.021 0.056 0.041 0.101 0.061 0.136 0.014 0.037 0.027 0.071 0.038 0.102v0c0.023 0.062 0.016 0.118-0.023 0.167-0.036 0.056-0.133 0.145-0.292 0.267z" fill="#331d2c" data-fill-palette-color="primary"></path><path d="M204.749 258.282l0.357 5.927c0 0.03-0.004 0.058-0.012 0.085-0.003 0.024-0.024 0.046-0.065 0.067v0c-0.041 0.021-0.072 0.034-0.093 0.037v0c-0.281 0.034-0.539 0.074-0.775 0.122-0.242 0.051-0.475 0.105-0.698 0.161-0.23 0.06-0.464 0.125-0.703 0.197-0.236 0.063-0.486 0.133-0.751 0.21v0c-0.074 0.016-0.136 0.018-0.187 0.007-0.05-0.011-0.094-0.052-0.13-0.122v0c-0.009-0.018-0.022-0.071-0.038-0.159-0.013-0.083-0.036-0.264-0.07-0.545-0.025-0.278-0.056-0.682-0.093-1.214-0.04-0.538-0.088-1.262-0.142-2.172v0c-0.267-0.271-0.581-0.604-0.942-0.998-0.358-0.388-0.744-0.817-1.159-1.288-0.418-0.461-0.858-0.952-1.322-1.471-0.46-0.529-0.925-1.059-1.394-1.591-0.469-0.532-0.937-1.06-1.403-1.586-0.463-0.52-0.907-1.016-1.33-1.489v0c-0.099-0.075-0.169-0.147-0.212-0.214-0.042-0.067-0.074-0.122-0.096-0.163v0c-0.049-0.094-0.026-0.18 0.068-0.258v0c0.447-0.373 0.913-0.76 1.398-1.161 0.476-0.403 0.909-0.825 1.3-1.265v0c0.02-0.018 0.048-0.036 0.083-0.055v0c0.088-0.046 0.152-0.038 0.191 0.024v0l4.572 5.932c-0.013-0.097-0.035-0.269-0.065-0.514-0.033-0.236-0.074-0.524-0.123-0.863-0.043-0.342-0.092-0.716-0.145-1.12-0.056-0.41-0.111-0.825-0.165-1.245-0.056-0.425-0.114-0.846-0.174-1.262-0.056-0.425-0.108-0.819-0.154-1.182-0.053-0.36-0.097-0.676-0.134-0.948-0.04-0.277-0.066-0.487-0.08-0.629v0c-0.01-0.077 0.02-0.133 0.091-0.17v0c0.023-0.012 0.04-0.017 0.048-0.014 0.006-0.003 0.018-0.009 0.035-0.018v0c0.585-0.065 1.164-0.168 1.74-0.309 0.578-0.15 1.148-0.301 1.71-0.451v0c0.135-0.04 0.234-0.002 0.295 0.115v0c0.043 0.082 0.068 0.233 0.077 0.452v0z" fill="#331d2c" data-fill-palette-color="primary"></path><path d="M222.202 248.106v0c-0.824 0.62-1.645 1.031-2.462 1.233-0.826 0.2-1.617 0.232-2.372 0.097-0.757-0.126-1.46-0.4-2.109-0.821-0.649-0.422-1.208-0.945-1.677-1.569v0c-0.473-0.629-0.818-1.301-1.034-2.016-0.22-0.72-0.314-1.44-0.283-2.158 0.032-0.728 0.191-1.435 0.476-2.122 0.286-0.687 0.703-1.315 1.251-1.885v0c0.082-0.078 0.111-0.133 0.087-0.164v0c-0.048-0.063-0.099-0.12-0.153-0.171-0.056-0.041-0.099-0.083-0.131-0.125v0c-0.048-0.063-0.071-0.116-0.07-0.158 0.011-0.041 0.029-0.071 0.055-0.092v0c1.115-0.839 2.159-1.426 3.132-1.761 0.973-0.335 1.87-0.468 2.692-0.4 0.822 0.069 1.566 0.315 2.233 0.74 0.671 0.43 1.264 0.986 1.777 1.668v0c0.656 0.872 1.096 1.758 1.318 2.658 0.221 0.91 0.258 1.789 0.11 2.637-0.149 0.857-0.468 1.66-0.956 2.408-0.489 0.757-1.117 1.425-1.884 2.001zM216.887 244.41v0c0.235 0.312 0.504 0.598 0.807 0.857 0.294 0.259 0.616 0.455 0.965 0.59 0.34 0.133 0.694 0.185 1.062 0.157 0.369-0.038 0.741-0.198 1.116-0.48v0c0.256-0.209 0.443-0.445 0.56-0.708 0.127-0.261 0.195-0.532 0.207-0.814 0.021-0.28-0.003-0.565-0.071-0.853-0.068-0.288-0.16-0.57-0.277-0.846-0.118-0.267-0.248-0.521-0.389-0.763-0.146-0.238-0.288-0.449-0.427-0.635v0c-0.227-0.301-0.494-0.563-0.803-0.786-0.313-0.228-0.64-0.388-0.981-0.478-0.341-0.091-0.696-0.105-1.064-0.044-0.358 0.063-0.707 0.221-1.044 0.476v0c-0.349 0.263-0.564 0.586-0.648 0.971-0.088 0.389-0.09 0.788-0.005 1.197 0.088 0.414 0.226 0.811 0.412 1.191 0.191 0.386 0.384 0.708 0.58 0.968z" fill="#331d2c" data-fill-palette-color="primary"></path><path d="M231.144 240.214v0c-0.055-0.066-0.165-0.204-0.33-0.413-0.165-0.209-0.375-0.474-0.631-0.797-0.261-0.318-0.558-0.683-0.892-1.096-0.329-0.417-0.686-0.864-1.071-1.338-0.384-0.484-0.782-0.987-1.194-1.509-0.421-0.522-0.844-1.051-1.269-1.587v0l-1.05 1.012c-0.286 0.276-0.499 0.463-0.641 0.564-0.151 0.1-0.264 0.112-0.338 0.036v0c-0.018-0.019-0.047-0.101-0.087-0.247-0.035-0.141-0.072-0.317-0.109-0.528-0.043-0.207-0.088-0.43-0.136-0.669-0.052-0.235-0.095-0.46-0.128-0.676-0.038-0.211-0.072-0.394-0.102-0.549-0.03-0.155-0.045-0.251-0.044-0.288v0l0.963-0.93-1.055-1.408c-0.567-0.73-0.973-1.414-1.219-2.049-0.241-0.64-0.354-1.239-0.34-1.796 0.019-0.552 0.155-1.068 0.407-1.55 0.252-0.473 0.587-0.911 1.005-1.315v0c0.424-0.409 0.91-0.781 1.458-1.117 0.558-0.336 1.153-0.639 1.785-0.909v0c0.141-0.054 0.249-0.089 0.324-0.106 0.08-0.022 0.143-0.009 0.189 0.038v0c0.041 0.043 0.077 0.118 0.108 0.227v0c0.146 0.484 0.275 0.866 0.387 1.143 0.112 0.278 0.199 0.497 0.262 0.657 0.067 0.165 0.103 0.282 0.106 0.353 0.003 0.07-0.026 0.135-0.088 0.195v0c-0.029 0.028-0.069 0.053-0.121 0.075-0.047 0.018-0.106 0.038-0.176 0.06v0c-0.245 0.108-0.49 0.225-0.736 0.352-0.236 0.127-0.437 0.27-0.604 0.431v0c-0.238 0.23-0.371 0.501-0.401 0.814-0.029 0.313 0.104 0.722 0.399 1.227v0c0.168 0.288 0.366 0.589 0.595 0.902 0.228 0.303 0.459 0.605 0.692 0.903v0l2.063-1.99c0.038-0.037 0.092-0.061 0.163-0.075 0.066-0.008 0.131 0.021 0.195 0.088v0c0.028 0.029 0.088 0.154 0.183 0.375 0.089 0.226 0.203 0.525 0.341 0.897v0l0.335 0.918c0.045 0.113 0.062 0.207 0.051 0.282-0.001 0.075-0.057 0.174-0.167 0.299v0l-1.37 1.322c0.471 0.602 0.94 1.198 1.406 1.786 0.462 0.584 0.896 1.134 1.303 1.651 0.407 0.517 0.771 0.975 1.091 1.374 0.316 0.403 0.558 0.716 0.727 0.939v0c0.009 0.019 0.034 0.05 0.076 0.092v0c0.018 0.019 0.039 0.036 0.062 0.051 0.014 0.014 0.025 0.026 0.035 0.035v0c0.046 0.048 0.066 0.102 0.06 0.163-0.006 0.061-0.062 0.179-0.168 0.355v0l-1.361 2.733c-0.039 0.074-0.09 0.174-0.152 0.298-0.068 0.12-0.147 0.224-0.237 0.312v0c-0.09 0.087-0.178 0.135-0.263 0.143-0.089 0.003-0.186-0.05-0.291-0.16z" fill="#331d2c" data-fill-palette-color="primary"></path><path d="M242.799 213.111v0c0.068 0.085 0.157 0.225 0.267 0.418 0.114 0.188 0.243 0.4 0.388 0.635 0.145 0.245 0.294 0.501 0.447 0.769 0.154 0.277 0.305 0.547 0.453 0.811v0c0.067 0.119 0.105 0.222 0.112 0.311-0.002 0.09-0.063 0.223-0.181 0.399v0l-1.907 2.563 3.621 3.282c0.048 0.046 0.086 0.1 0.113 0.162 0.031 0.057 0.044 0.122 0.039 0.193v0c-0.002 0.024-0.02 0.118-0.054 0.283-0.036 0.156-0.088 0.353-0.156 0.594-0.058 0.239-0.128 0.498-0.209 0.777-0.076 0.284-0.156 0.556-0.24 0.817-0.088 0.266-0.174 0.504-0.26 0.713-0.09 0.215-0.171 0.369-0.244 0.463v0c-0.089 0.115-0.192 0.207-0.31 0.275-0.114 0.062-0.24 0.041-0.377-0.064v0c-0.292-0.216-0.606-0.47-0.941-0.761-0.335-0.291-0.674-0.588-1.016-0.893-0.338-0.309-0.67-0.615-0.997-0.916-0.318-0.303-0.616-0.577-0.894-0.824v0l-0.675-0.619c-0.375 0.488-0.654 0.824-0.837 1.008-0.187 0.19-0.336 0.242-0.446 0.158v0c-0.079-0.06-0.146-0.179-0.203-0.356v0c-0.071-0.255-0.166-0.549-0.285-0.882-0.124-0.337-0.245-0.664-0.362-0.978-0.117-0.315-0.219-0.594-0.308-0.837-0.092-0.238-0.148-0.389-0.165-0.453v0l-2.265-2.002c-0.085 0.11-0.157 0.209-0.215 0.297-0.055 0.083-0.109 0.158-0.162 0.226-0.047 0.072-0.093 0.137-0.137 0.195-0.039 0.062-0.083 0.124-0.131 0.187v0c-0.214 0.278-0.382 0.465-0.507 0.562-0.12 0.091-0.225 0.103-0.313 0.034v0c-0.042-0.032-0.1-0.131-0.174-0.296-0.073-0.165-0.154-0.364-0.241-0.598-0.086-0.225-0.174-0.468-0.265-0.729-0.095-0.256-0.185-0.492-0.27-0.708v0l-0.482-1.196 2.898-4.066c0.375-0.521 0.746-1.041 1.112-1.56 0.366-0.52 0.706-1 1.02-1.443 0.305-0.441 0.567-0.82 0.785-1.136 0.227-0.317 0.385-0.539 0.472-0.663v0c0.004-0.005 0.016-0.021 0.037-0.047 0.025-0.022 0.055-0.045 0.09-0.068 0.036-0.014 0.082-0.02 0.139-0.019 0.052-0.002 0.112 0.023 0.179 0.076v0c0.031 0.024 0.117 0.152 0.256 0.384 0.13 0.233 0.33 0.575 0.601 1.025v0l0.725 1.157c0.062 0.114 0.099 0.218 0.111 0.311 0.012 0.093-0.044 0.225-0.167 0.396v0c-0.144 0.198-0.286 0.405-0.428 0.623-0.147 0.213-0.297 0.43-0.452 0.653v0l-1.891 2.738c0.197 0.21 0.345 0.365 0.444 0.466 0.098 0.1 0.184 0.179 0.257 0.235 0.064 0.058 0.133 0.115 0.206 0.171 0.073 0.056 0.187 0.148 0.34 0.274v0c0.106 0.09 0.192 0.168 0.257 0.235 0.075 0.066 0.142 0.13 0.203 0.193 0.065 0.067 0.138 0.135 0.217 0.204 0.071 0.071 0.164 0.155 0.281 0.254v0c0.284-0.391 0.561-0.774 0.833-1.149 0.272-0.375 0.518-0.724 0.74-1.045 0.231-0.323 0.431-0.599 0.599-0.829 0.163-0.234 0.278-0.395 0.347-0.484v0c0.036-0.047 0.095-0.086 0.176-0.115 0.076-0.034 0.164-0.012 0.263 0.065v0c0.047 0.036 0.094 0.084 0.139 0.144z" fill="#331d2c" data-fill-palette-color="primary"></path><path d="M247.589 198.896l8.137 6.281c0.019 0.019 0.04 0.036 0.063 0.05 0.023 0.014 0.042 0.026 0.059 0.036v0c0.158 0.097 0.302 0.153 0.431 0.17 0.133 0.011 0.252 0.006 0.357-0.014 0.102-0.015 0.189-0.036 0.259-0.063 0.071-0.027 0.123-0.03 0.157-0.009v0c0.085 0.052 0.107 0.193 0.066 0.425v0l-0.46 3.171c-0.001 0.015-0.012 0.039-0.033 0.073v0c-0.031 0.051-0.104 0.076-0.22 0.075-0.116-0.001-0.255-0.02-0.418-0.058-0.163-0.038-0.333-0.083-0.509-0.137-0.18-0.048-0.343-0.097-0.491-0.148v0c0.21 0.671 0.285 1.298 0.224 1.88-0.07 0.585-0.243 1.103-0.519 1.554v0c-0.317 0.519-0.742 0.961-1.274 1.326-0.535 0.355-1.135 0.597-1.803 0.724-0.663 0.122-1.369 0.117-2.118-0.014-0.745-0.137-1.496-0.437-2.252-0.899v0c-0.892-0.545-1.625-1.171-2.201-1.878-0.575-0.708-0.994-1.444-1.255-2.208-0.262-0.764-0.358-1.532-0.291-2.304 0.071-0.763 0.307-1.474 0.711-2.135v0c0.286-0.469 0.653-0.853 1.1-1.154 0.441-0.304 0.927-0.554 1.457-0.749v0c-0.166-0.148-0.303-0.259-0.413-0.333-0.104-0.071-0.183-0.139-0.236-0.203-0.048-0.06-0.062-0.127-0.041-0.199 0.015-0.076 0.059-0.192 0.132-0.35v0c0.21-0.484 0.426-0.964 0.647-1.441 0.221-0.477 0.466-0.967 0.734-1.469zM253.015 207.904l-2.531-2.08c-0.318-0.279-0.625-0.525-0.921-0.737-0.302-0.216-0.583-0.41-0.841-0.583v0c-0.132 0.051-0.274 0.112-0.425 0.182-0.154 0.061-0.306 0.139-0.456 0.233-0.156 0.091-0.302 0.196-0.437 0.315-0.129 0.123-0.242 0.263-0.338 0.421v0c-0.207 0.339-0.272 0.686-0.195 1.043 0.079 0.366 0.233 0.716 0.463 1.05 0.239 0.332 0.517 0.637 0.835 0.917 0.321 0.274 0.617 0.493 0.888 0.658v0c0.988 0.603 1.788 0.917 2.4 0.942 0.616 0.019 1.065-0.202 1.348-0.665v0c0.114-0.186 0.188-0.428 0.221-0.724 0.04-0.293 0.036-0.617-0.011-0.972z" fill="#331d2c" data-fill-palette-color="primary"></path><path d="M264.306 191.189l-0.418 2.729c-0.017 0.087-0.031 0.197-0.04 0.33-0.012 0.14-0.044 0.267-0.096 0.381v0c-0.044 0.096-0.101 0.168-0.174 0.215-0.081 0.051-0.179 0.05-0.293-0.002v0l-0.054-0.024c-0.343-0.206-0.635-0.378-0.877-0.516-0.233-0.142-0.447-0.271-0.641-0.388-0.191-0.108-0.384-0.217-0.581-0.328-0.197-0.111-0.422-0.238-0.677-0.382-0.258-0.153-0.565-0.332-0.922-0.537-0.351-0.202-0.792-0.456-1.322-0.761v0c-0.324-0.183-0.654-0.368-0.989-0.556-0.345-0.185-0.668-0.345-0.969-0.482v0c-0.199-0.09-0.389-0.158-0.572-0.204-0.182-0.046-0.355-0.059-0.517-0.038-0.153 0.018-0.293 0.078-0.419 0.181-0.126 0.103-0.237 0.259-0.332 0.47v0c-0.068 0.151-0.13 0.377-0.187 0.678-0.056 0.301-0.069 0.618-0.038 0.952 0.037 0.336 0.132 0.662 0.287 0.979 0.16 0.319 0.415 0.576 0.762 0.769v0c0.475 0.266 0.881 0.492 1.217 0.681 0.333 0.194 0.615 0.358 0.845 0.491 0.236 0.136 0.425 0.247 0.568 0.333 0.149 0.089 0.273 0.16 0.372 0.211v0c0.027 0.02 0.099 0.063 0.214 0.13 0.106 0.07 0.241 0.149 0.404 0.237 0.161 0.094 0.33 0.193 0.509 0.295 0.179 0.103 0.347 0.197 0.504 0.283 0.161 0.094 0.298 0.175 0.413 0.241 0.118 0.061 0.189 0.096 0.213 0.107v0c0.054 0.025 0.099 0.045 0.136 0.061 0.039 0.01 0.076 0.024 0.112 0.04v0c0.048 0.022 0.078 0.068 0.09 0.139 0.02 0.067 0.012 0.198-0.025 0.392v0l-0.28 3.052c-0.011 0.089-0.022 0.201-0.032 0.334-0.018 0.137-0.053 0.263-0.105 0.377v0c-0.044 0.096-0.101 0.168-0.173 0.216-0.081 0.051-0.179 0.05-0.293-0.002v0l-9.793-5.527c-0.209-0.116-0.349-0.208-0.419-0.277-0.071-0.068-0.091-0.168-0.061-0.3v0c0.152-0.657 0.31-1.337 0.476-2.038 0.168-0.693 0.292-1.385 0.371-2.075v0c0.025-0.054 0.049-0.083 0.073-0.087 0.015-0.001 0.04 0.007 0.076 0.024v0c0.012 0.005 0.03 0.014 0.054 0.024 0.027 0.02 0.082 0.059 0.165 0.118 0.091 0.056 0.223 0.141 0.396 0.255 0.179 0.117 0.425 0.279 0.738 0.487v0c-0.058-0.578-0.077-1.105-0.057-1.583 0.02-0.477 0.065-0.914 0.135-1.311 0.07-0.396 0.161-0.758 0.273-1.085 0.112-0.327 0.229-0.626 0.351-0.897v0c0.425-0.94 1.018-1.496 1.778-1.668 0.763-0.163 1.714 0.013 2.853 0.528v0c0.157 0.071 0.321 0.149 0.493 0.234 0.166 0.082 0.335 0.173 0.508 0.273v0l4.085 2.402c0.261 0.161 0.507 0.298 0.74 0.411 0.232 0.112 0.505 0.239 0.818 0.381v0c0.054 0.025 0.101 0.042 0.14 0.052 0.036 0.016 0.069 0.031 0.099 0.045v0c0.06 0.027 0.095 0.072 0.103 0.134 0.014 0.065 0.009 0.196-0.015 0.396z" fill="#331d2c" data-fill-palette-color="primary"></path><path d="M266.343 186.497l-2.889-0.802c-0.006-0.002-0.013-0.004-0.019-0.006-0.002 0.006-0.006 0.008-0.013 0.006v0c-0.094-0.031-0.126-0.094-0.095-0.188v0c0.021-0.063 0.064-0.111 0.131-0.145v0c0.355-0.19 0.676-0.436 0.963-0.738 0.281-0.305 0.489-0.664 0.626-1.079v0c0.037-0.113 0.067-0.246 0.089-0.399 0.024-0.159 0.032-0.31 0.023-0.452-0.013-0.151-0.053-0.285-0.118-0.404-0.065-0.119-0.167-0.201-0.306-0.246v0c-0.157-0.052-0.311-0.06-0.461-0.026-0.15 0.034-0.29 0.1-0.42 0.196v0c-0.067 0.055-0.192 0.149-0.375 0.284-0.175 0.13-0.365 0.274-0.569 0.429-0.202 0.149-0.396 0.295-0.581 0.436-0.183 0.135-0.315 0.227-0.394 0.278v0c-0.334 0.232-0.654 0.401-0.961 0.51-0.305 0.102-0.602 0.158-0.89 0.167-0.297 0.014-0.591-0.013-0.882-0.081-0.293-0.061-0.6-0.145-0.92-0.249v0c-0.484-0.159-0.9-0.438-1.25-0.838-0.343-0.398-0.608-0.861-0.797-1.39-0.189-0.528-0.293-1.091-0.312-1.689-0.013-0.596 0.071-1.17 0.252-1.724v0c0.151-0.459 0.368-0.888 0.653-1.289 0.285-0.401 0.655-0.735 1.112-1.003v0c0.452 0.107 0.891 0.223 1.316 0.349 0.431 0.128 0.885 0.252 1.361 0.373v0c0.088 0.029 0.14 0.07 0.157 0.125 0.017 0.054 0.017 0.107 0.001 0.157v0c-0.017 0.05-0.05 0.088-0.1 0.113v0c-0.202 0.108-0.407 0.222-0.613 0.342-0.198 0.116-0.387 0.245-0.566 0.388-0.175 0.151-0.331 0.319-0.469 0.504-0.143 0.183-0.254 0.393-0.332 0.632v0c-0.047 0.145-0.082 0.293-0.105 0.446-0.022 0.153-0.022 0.299 0.002 0.44 0.03 0.142 0.087 0.265 0.171 0.369 0.088 0.113 0.221 0.198 0.397 0.255v0c0.201 0.066 0.382 0.098 0.543 0.095 0.161-0.003 0.34-0.07 0.536-0.2v0l1.947-1.512c0.361-0.271 0.693-0.479 0.998-0.623 0.305-0.144 0.594-0.24 0.867-0.289 0.265-0.045 0.519-0.056 0.762-0.032 0.241 0.03 0.471 0.081 0.691 0.154v0c0.628 0.206 1.131 0.531 1.508 0.974 0.383 0.446 0.656 0.95 0.819 1.512 0.17 0.564 0.239 1.161 0.206 1.79-0.026 0.632-0.135 1.24-0.327 1.824v0c-0.146 0.446-0.331 0.859-0.552 1.239-0.23 0.384-0.502 0.723-0.814 1.017z" fill="#331d2c" data-fill-palette-color="primary"></path></g></svg></g></svg></g></svg></g></svg></g><defs></defs></svg><rect width="279.72" height="279.72" fill="none" stroke="none" visibility="hidden"></rect></g></svg></g></svg>